%TF.GenerationSoftware,KiCad,Pcbnew,(6.0.8-1)-1*%
%TF.CreationDate,2022-11-21T09:11:56+01:00*%
%TF.ProjectId,KNXCurrent,4b4e5843-7572-4726-956e-742e6b696361,rev?*%
%TF.SameCoordinates,Original*%
%TF.FileFunction,Legend,Top*%
%TF.FilePolarity,Positive*%
%FSLAX46Y46*%
G04 Gerber Fmt 4.6, Leading zero omitted, Abs format (unit mm)*
G04 Created by KiCad (PCBNEW (6.0.8-1)-1) date 2022-11-21 09:11:56*
%MOMM*%
%LPD*%
G01*
G04 APERTURE LIST*
G04 Aperture macros list*
%AMRoundRect*
0 Rectangle with rounded corners*
0 $1 Rounding radius*
0 $2 $3 $4 $5 $6 $7 $8 $9 X,Y pos of 4 corners*
0 Add a 4 corners polygon primitive as box body*
4,1,4,$2,$3,$4,$5,$6,$7,$8,$9,$2,$3,0*
0 Add four circle primitives for the rounded corners*
1,1,$1+$1,$2,$3*
1,1,$1+$1,$4,$5*
1,1,$1+$1,$6,$7*
1,1,$1+$1,$8,$9*
0 Add four rect primitives between the rounded corners*
20,1,$1+$1,$2,$3,$4,$5,0*
20,1,$1+$1,$4,$5,$6,$7,0*
20,1,$1+$1,$6,$7,$8,$9,0*
20,1,$1+$1,$8,$9,$2,$3,0*%
G04 Aperture macros list end*
%ADD10C,0.150000*%
%ADD11C,0.500000*%
%ADD12C,0.300000*%
%ADD13C,0.074930*%
%ADD14C,0.254000*%
%ADD15C,0.120000*%
%ADD16C,0.127000*%
%ADD17C,0.250000*%
%ADD18RoundRect,0.225000X-0.250000X0.225000X-0.250000X-0.225000X0.250000X-0.225000X0.250000X0.225000X0*%
%ADD19RoundRect,0.140000X0.140000X0.170000X-0.140000X0.170000X-0.140000X-0.170000X0.140000X-0.170000X0*%
%ADD20RoundRect,0.250000X-0.250000X-0.475000X0.250000X-0.475000X0.250000X0.475000X-0.250000X0.475000X0*%
%ADD21RoundRect,0.250000X1.500000X0.550000X-1.500000X0.550000X-1.500000X-0.550000X1.500000X-0.550000X0*%
%ADD22R,0.900000X1.500000*%
%ADD23O,1.700000X1.700000*%
%ADD24R,1.700000X1.700000*%
%ADD25RoundRect,0.135000X0.135000X0.185000X-0.135000X0.185000X-0.135000X-0.185000X0.135000X-0.185000X0*%
%ADD26RoundRect,0.150000X0.150000X-0.512500X0.150000X0.512500X-0.150000X0.512500X-0.150000X-0.512500X0*%
%ADD27R,1.297940X1.498600*%
%ADD28R,1.400000X1.200000*%
%ADD29R,0.450000X0.600000*%
%ADD30RoundRect,0.150000X-0.587500X-0.150000X0.587500X-0.150000X0.587500X0.150000X-0.587500X0.150000X0*%
%ADD31R,4.000000X1.500000*%
%ADD32RoundRect,0.218750X0.256250X-0.218750X0.256250X0.218750X-0.256250X0.218750X-0.256250X-0.218750X0*%
%ADD33R,1.000000X1.000000*%
%ADD34RoundRect,0.250000X0.262500X0.450000X-0.262500X0.450000X-0.262500X-0.450000X0.262500X-0.450000X0*%
%ADD35RoundRect,0.250000X1.425000X-0.362500X1.425000X0.362500X-1.425000X0.362500X-1.425000X-0.362500X0*%
%ADD36RoundRect,0.140000X-0.170000X0.140000X-0.170000X-0.140000X0.170000X-0.140000X0.170000X0.140000X0*%
%ADD37RoundRect,0.135000X-0.135000X-0.185000X0.135000X-0.185000X0.135000X0.185000X-0.135000X0.185000X0*%
%ADD38RoundRect,0.140000X0.170000X-0.140000X0.170000X0.140000X-0.170000X0.140000X-0.170000X-0.140000X0*%
%ADD39RoundRect,0.225000X0.225000X0.250000X-0.225000X0.250000X-0.225000X-0.250000X0.225000X-0.250000X0*%
%ADD40RoundRect,0.140000X-0.140000X-0.170000X0.140000X-0.170000X0.140000X0.170000X-0.140000X0.170000X0*%
%ADD41C,2.500000*%
%ADD42O,3.960000X1.980000*%
%ADD43R,3.960000X1.980000*%
%ADD44R,3.200000X3.200000*%
%ADD45RoundRect,0.050000X0.387500X-0.050000X0.387500X0.050000X-0.387500X0.050000X-0.387500X-0.050000X0*%
%ADD46RoundRect,0.050000X0.050000X-0.387500X0.050000X0.387500X-0.050000X0.387500X-0.050000X-0.387500X0*%
%ADD47R,3.100000X2.400000*%
%ADD48R,0.350000X0.850000*%
%ADD49RoundRect,0.225000X-0.225000X-0.250000X0.225000X-0.250000X0.225000X0.250000X-0.225000X0.250000X0*%
%ADD50R,4.600000X4.600000*%
%ADD51RoundRect,0.062500X0.062500X0.350000X-0.062500X0.350000X-0.062500X-0.350000X0.062500X-0.350000X0*%
%ADD52RoundRect,0.062500X0.350000X0.062500X-0.350000X0.062500X-0.350000X-0.062500X0.350000X-0.062500X0*%
%ADD53RoundRect,0.225000X0.250000X-0.225000X0.250000X0.225000X-0.250000X0.225000X-0.250000X-0.225000X0*%
%ADD54R,0.600000X0.450000*%
%ADD55RoundRect,0.135000X0.185000X-0.135000X0.185000X0.135000X-0.185000X0.135000X-0.185000X-0.135000X0*%
%ADD56RoundRect,0.250000X-0.262500X-0.450000X0.262500X-0.450000X0.262500X0.450000X-0.262500X0.450000X0*%
%ADD57R,1.800000X2.500000*%
%ADD58R,2.500000X1.800000*%
%ADD59R,1.150000X1.000000*%
%ADD60C,1.450000*%
%ADD61R,1.500000X1.900000*%
%ADD62O,1.200000X1.900000*%
%ADD63R,1.200000X1.900000*%
%ADD64R,0.400000X1.350000*%
G04 APERTURE END LIST*
D10*
X219200000Y-118515456D02*
X162300000Y-118515456D01*
X162300000Y-118515456D02*
X162300000Y-92415456D01*
X162300000Y-92415456D02*
X219200000Y-92415456D01*
X219200000Y-92415456D02*
X219200000Y-118515456D01*
X75400000Y-104715456D02*
X161700000Y-104715456D01*
X161700000Y-104715456D02*
X161700000Y-118515456D01*
X161700000Y-118515456D02*
X75400000Y-118515456D01*
X75400000Y-118515456D02*
X75400000Y-104715456D01*
D11*
X162000000Y-118415456D02*
X162000000Y-92415456D01*
D10*
X75525000Y-92521113D02*
X116525000Y-92521113D01*
X116525000Y-92521113D02*
X116525000Y-102621113D01*
X116525000Y-102621113D02*
X75525000Y-102621113D01*
X75525000Y-102621113D02*
X75525000Y-92521113D01*
D12*
X115278571Y-111110857D02*
X113778571Y-111110857D01*
X115278571Y-110253714D02*
X114421428Y-110896571D01*
X113778571Y-110253714D02*
X114635714Y-111110857D01*
X115278571Y-109610857D02*
X113778571Y-109610857D01*
X115278571Y-108753714D01*
X113778571Y-108753714D01*
X113778571Y-108182285D02*
X115278571Y-107182285D01*
X113778571Y-107182285D02*
X115278571Y-108182285D01*
X149700000Y-105196571D02*
X150557142Y-105196571D01*
X150128571Y-106696571D02*
X150128571Y-105196571D01*
X151057142Y-106696571D02*
X151057142Y-105196571D01*
X151700000Y-105339428D02*
X151771428Y-105268000D01*
X151914285Y-105196571D01*
X152271428Y-105196571D01*
X152414285Y-105268000D01*
X152485714Y-105339428D01*
X152557142Y-105482285D01*
X152557142Y-105625142D01*
X152485714Y-105839428D01*
X151628571Y-106696571D01*
X152557142Y-106696571D01*
X85980342Y-113912971D02*
X85980342Y-112412971D01*
X86837485Y-113912971D02*
X86194628Y-113055828D01*
X86837485Y-112412971D02*
X85980342Y-113270114D01*
X87480342Y-113912971D02*
X87480342Y-112412971D01*
X88337485Y-113912971D01*
X88337485Y-112412971D01*
X88908914Y-112412971D02*
X89908914Y-113912971D01*
X89908914Y-112412971D02*
X88908914Y-113912971D01*
D10*
X100973819Y-95461876D02*
X101973819Y-95461876D01*
X100973819Y-96033305D02*
X101545247Y-95604734D01*
X101973819Y-96033305D02*
X101402390Y-95461876D01*
X100973819Y-96461876D02*
X101973819Y-96461876D01*
X100973819Y-97033305D01*
X101973819Y-97033305D01*
X101973819Y-97414257D02*
X100973819Y-98080924D01*
X101973819Y-98080924D02*
X100973819Y-97414257D01*
X100973819Y-99223781D02*
X101973819Y-99223781D01*
X101973819Y-99604734D01*
X101926200Y-99699972D01*
X101878580Y-99747591D01*
X101783342Y-99795210D01*
X101640485Y-99795210D01*
X101545247Y-99747591D01*
X101497628Y-99699972D01*
X101450009Y-99604734D01*
X101450009Y-99223781D01*
X100973819Y-100223781D02*
X101640485Y-100223781D01*
X101450009Y-100223781D02*
X101545247Y-100271400D01*
X101592866Y-100319019D01*
X101640485Y-100414257D01*
X101640485Y-100509495D01*
X100973819Y-100985686D02*
X101021438Y-100890448D01*
X101069057Y-100842829D01*
X101164295Y-100795210D01*
X101450009Y-100795210D01*
X101545247Y-100842829D01*
X101592866Y-100890448D01*
X101640485Y-100985686D01*
X101640485Y-101128543D01*
X101592866Y-101223781D01*
X101545247Y-101271400D01*
X101450009Y-101319019D01*
X101164295Y-101319019D01*
X101069057Y-101271400D01*
X101021438Y-101223781D01*
X100973819Y-101128543D01*
X100973819Y-100985686D01*
X101640485Y-102176162D02*
X100830961Y-102176162D01*
X100735723Y-102128543D01*
X100688104Y-102080924D01*
X100640485Y-101985686D01*
X100640485Y-101842829D01*
X100688104Y-101747591D01*
X101021438Y-102176162D02*
X100973819Y-102080924D01*
X100973819Y-101890448D01*
X101021438Y-101795210D01*
X101069057Y-101747591D01*
X101164295Y-101699972D01*
X101450009Y-101699972D01*
X101545247Y-101747591D01*
X101592866Y-101795210D01*
X101640485Y-101890448D01*
X101640485Y-102080924D01*
X101592866Y-102176162D01*
X101069057Y-102652353D02*
X101021438Y-102699972D01*
X100973819Y-102652353D01*
X101021438Y-102604734D01*
X101069057Y-102652353D01*
X100973819Y-102652353D01*
X91147619Y-96247619D02*
X91623809Y-95914285D01*
X91147619Y-95676190D02*
X92147619Y-95676190D01*
X92147619Y-96057142D01*
X92100000Y-96152380D01*
X92052380Y-96200000D01*
X91957142Y-96247619D01*
X91814285Y-96247619D01*
X91719047Y-96200000D01*
X91671428Y-96152380D01*
X91623809Y-96057142D01*
X91623809Y-95676190D01*
X91671428Y-96676190D02*
X91671428Y-97009523D01*
X91147619Y-97152380D02*
X91147619Y-96676190D01*
X92147619Y-96676190D01*
X92147619Y-97152380D01*
X91195238Y-97533333D02*
X91147619Y-97676190D01*
X91147619Y-97914285D01*
X91195238Y-98009523D01*
X91242857Y-98057142D01*
X91338095Y-98104761D01*
X91433333Y-98104761D01*
X91528571Y-98057142D01*
X91576190Y-98009523D01*
X91623809Y-97914285D01*
X91671428Y-97723809D01*
X91719047Y-97628571D01*
X91766666Y-97580952D01*
X91861904Y-97533333D01*
X91957142Y-97533333D01*
X92052380Y-97580952D01*
X92100000Y-97628571D01*
X92147619Y-97723809D01*
X92147619Y-97961904D01*
X92100000Y-98104761D01*
X91671428Y-98533333D02*
X91671428Y-98866666D01*
X91147619Y-99009523D02*
X91147619Y-98533333D01*
X92147619Y-98533333D01*
X92147619Y-99009523D01*
X92147619Y-99295238D02*
X92147619Y-99866666D01*
X91147619Y-99580952D02*
X92147619Y-99580952D01*
X96247619Y-95485714D02*
X97247619Y-95485714D01*
X96247619Y-96057142D01*
X97247619Y-96057142D01*
X96771428Y-96533333D02*
X96771428Y-96866666D01*
X96247619Y-97009523D02*
X96247619Y-96533333D01*
X97247619Y-96533333D01*
X97247619Y-97009523D01*
X97247619Y-97628571D02*
X97247619Y-97819047D01*
X97200000Y-97914285D01*
X97104761Y-98009523D01*
X96914285Y-98057142D01*
X96580952Y-98057142D01*
X96390476Y-98009523D01*
X96295238Y-97914285D01*
X96247619Y-97819047D01*
X96247619Y-97628571D01*
X96295238Y-97533333D01*
X96390476Y-97438095D01*
X96580952Y-97390476D01*
X96914285Y-97390476D01*
X97104761Y-97438095D01*
X97200000Y-97533333D01*
X97247619Y-97628571D01*
X96247619Y-99247619D02*
X97247619Y-99247619D01*
X97247619Y-99628571D01*
X97200000Y-99723809D01*
X97152380Y-99771428D01*
X97057142Y-99819047D01*
X96914285Y-99819047D01*
X96819047Y-99771428D01*
X96771428Y-99723809D01*
X96723809Y-99628571D01*
X96723809Y-99247619D01*
X97247619Y-100152380D02*
X96247619Y-100390476D01*
X96961904Y-100580952D01*
X96247619Y-100771428D01*
X97247619Y-101009523D01*
X96247619Y-101961904D02*
X96723809Y-101628571D01*
X96247619Y-101390476D02*
X97247619Y-101390476D01*
X97247619Y-101771428D01*
X97200000Y-101866666D01*
X97152380Y-101914285D01*
X97057142Y-101961904D01*
X96914285Y-101961904D01*
X96819047Y-101914285D01*
X96771428Y-101866666D01*
X96723809Y-101771428D01*
X96723809Y-101390476D01*
X93734771Y-95279115D02*
X93734771Y-96041019D01*
X93353819Y-95660067D02*
X94115723Y-95660067D01*
X94353819Y-96421972D02*
X94353819Y-97041019D01*
X93972866Y-96707686D01*
X93972866Y-96850543D01*
X93925247Y-96945781D01*
X93877628Y-96993400D01*
X93782390Y-97041019D01*
X93544295Y-97041019D01*
X93449057Y-96993400D01*
X93401438Y-96945781D01*
X93353819Y-96850543D01*
X93353819Y-96564829D01*
X93401438Y-96469591D01*
X93449057Y-96421972D01*
X93449057Y-97469591D02*
X93401438Y-97517210D01*
X93353819Y-97469591D01*
X93401438Y-97421972D01*
X93449057Y-97469591D01*
X93353819Y-97469591D01*
X94353819Y-97850543D02*
X94353819Y-98469591D01*
X93972866Y-98136257D01*
X93972866Y-98279115D01*
X93925247Y-98374353D01*
X93877628Y-98421972D01*
X93782390Y-98469591D01*
X93544295Y-98469591D01*
X93449057Y-98421972D01*
X93401438Y-98374353D01*
X93353819Y-98279115D01*
X93353819Y-97993400D01*
X93401438Y-97898162D01*
X93449057Y-97850543D01*
X94353819Y-98755305D02*
X93353819Y-99088638D01*
X94353819Y-99421972D01*
D12*
X111150000Y-110460857D02*
X111078571Y-110603714D01*
X111078571Y-110818000D01*
X111150000Y-111032285D01*
X111292857Y-111175142D01*
X111435714Y-111246571D01*
X111721428Y-111318000D01*
X111935714Y-111318000D01*
X112221428Y-111246571D01*
X112364285Y-111175142D01*
X112507142Y-111032285D01*
X112578571Y-110818000D01*
X112578571Y-110675142D01*
X112507142Y-110460857D01*
X112435714Y-110389428D01*
X111935714Y-110389428D01*
X111935714Y-110675142D01*
X112578571Y-109746571D02*
X111078571Y-109746571D01*
X112578571Y-108889428D01*
X111078571Y-108889428D01*
X112578571Y-108175142D02*
X111078571Y-108175142D01*
X111078571Y-107818000D01*
X111150000Y-107603714D01*
X111292857Y-107460857D01*
X111435714Y-107389428D01*
X111721428Y-107318000D01*
X111935714Y-107318000D01*
X112221428Y-107389428D01*
X112364285Y-107460857D01*
X112507142Y-107603714D01*
X112578571Y-107818000D01*
X112578571Y-108175142D01*
X121678571Y-111918000D02*
X121678571Y-111060857D01*
X123178571Y-111489428D02*
X121678571Y-111489428D01*
X121678571Y-110703714D02*
X123178571Y-109703714D01*
X121678571Y-109703714D02*
X123178571Y-110703714D01*
X122607142Y-109132285D02*
X122607142Y-107989428D01*
X121678571Y-107489428D02*
X121678571Y-106632285D01*
X123178571Y-107060857D02*
X121678571Y-107060857D01*
X123178571Y-106132285D02*
X121678571Y-106132285D01*
X86425542Y-106642400D02*
X86282685Y-106570971D01*
X86068400Y-106570971D01*
X85854114Y-106642400D01*
X85711257Y-106785257D01*
X85639828Y-106928114D01*
X85568400Y-107213828D01*
X85568400Y-107428114D01*
X85639828Y-107713828D01*
X85711257Y-107856685D01*
X85854114Y-107999542D01*
X86068400Y-108070971D01*
X86211257Y-108070971D01*
X86425542Y-107999542D01*
X86496971Y-107928114D01*
X86496971Y-107428114D01*
X86211257Y-107428114D01*
X87139828Y-108070971D02*
X87139828Y-106570971D01*
X87996971Y-108070971D01*
X87996971Y-106570971D01*
X88711257Y-108070971D02*
X88711257Y-106570971D01*
X89068400Y-106570971D01*
X89282685Y-106642400D01*
X89425542Y-106785257D01*
X89496971Y-106928114D01*
X89568400Y-107213828D01*
X89568400Y-107428114D01*
X89496971Y-107713828D01*
X89425542Y-107856685D01*
X89282685Y-107999542D01*
X89068400Y-108070971D01*
X88711257Y-108070971D01*
X116578571Y-111332285D02*
X116578571Y-110403714D01*
X117150000Y-110903714D01*
X117150000Y-110689428D01*
X117221428Y-110546571D01*
X117292857Y-110475142D01*
X117435714Y-110403714D01*
X117792857Y-110403714D01*
X117935714Y-110475142D01*
X118007142Y-110546571D01*
X118078571Y-110689428D01*
X118078571Y-111118000D01*
X118007142Y-111260857D01*
X117935714Y-111332285D01*
X117935714Y-109760857D02*
X118007142Y-109689428D01*
X118078571Y-109760857D01*
X118007142Y-109832285D01*
X117935714Y-109760857D01*
X118078571Y-109760857D01*
X116578571Y-109189428D02*
X116578571Y-108260857D01*
X117150000Y-108760857D01*
X117150000Y-108546571D01*
X117221428Y-108403714D01*
X117292857Y-108332285D01*
X117435714Y-108260857D01*
X117792857Y-108260857D01*
X117935714Y-108332285D01*
X118007142Y-108403714D01*
X118078571Y-108546571D01*
X118078571Y-108975142D01*
X118007142Y-109118000D01*
X117935714Y-109189428D01*
X116578571Y-107832285D02*
X118078571Y-107332285D01*
X116578571Y-106832285D01*
D10*
X103847619Y-96052380D02*
X104323809Y-95719047D01*
X103847619Y-95480952D02*
X104847619Y-95480952D01*
X104847619Y-95861904D01*
X104800000Y-95957142D01*
X104752380Y-96004761D01*
X104657142Y-96052380D01*
X104514285Y-96052380D01*
X104419047Y-96004761D01*
X104371428Y-95957142D01*
X104323809Y-95861904D01*
X104323809Y-95480952D01*
X103847619Y-96957142D02*
X103847619Y-96480952D01*
X104847619Y-96480952D01*
X104371428Y-97290476D02*
X104371428Y-97623809D01*
X103847619Y-97766666D02*
X103847619Y-97290476D01*
X104847619Y-97290476D01*
X104847619Y-97766666D01*
X103847619Y-98195238D02*
X104847619Y-98195238D01*
X104847619Y-98433333D01*
X104800000Y-98576190D01*
X104704761Y-98671428D01*
X104609523Y-98719047D01*
X104419047Y-98766666D01*
X104276190Y-98766666D01*
X104085714Y-98719047D01*
X103990476Y-98671428D01*
X103895238Y-98576190D01*
X103847619Y-98433333D01*
X103847619Y-98195238D01*
D12*
X148800000Y-115896571D02*
X149657142Y-115896571D01*
X149228571Y-117396571D02*
X149228571Y-115896571D01*
X150157142Y-117396571D02*
X150157142Y-115896571D01*
X151657142Y-117396571D02*
X150800000Y-117396571D01*
X151228571Y-117396571D02*
X151228571Y-115896571D01*
X151085714Y-116110857D01*
X150942857Y-116253714D01*
X150800000Y-116325142D01*
D10*
X89480200Y-96263210D02*
X89527819Y-96167972D01*
X89527819Y-96025115D01*
X89480200Y-95882257D01*
X89384961Y-95787019D01*
X89289723Y-95739400D01*
X89099247Y-95691781D01*
X88956390Y-95691781D01*
X88765914Y-95739400D01*
X88670676Y-95787019D01*
X88575438Y-95882257D01*
X88527819Y-96025115D01*
X88527819Y-96120353D01*
X88575438Y-96263210D01*
X88623057Y-96310829D01*
X88956390Y-96310829D01*
X88956390Y-96120353D01*
X88527819Y-96739400D02*
X89527819Y-96739400D01*
X88527819Y-97310829D01*
X89527819Y-97310829D01*
X88527819Y-97787019D02*
X89527819Y-97787019D01*
X89527819Y-98025115D01*
X89480200Y-98167972D01*
X89384961Y-98263210D01*
X89289723Y-98310829D01*
X89099247Y-98358448D01*
X88956390Y-98358448D01*
X88765914Y-98310829D01*
X88670676Y-98263210D01*
X88575438Y-98167972D01*
X88527819Y-98025115D01*
X88527819Y-97787019D01*
X168445238Y-96853551D02*
X168397619Y-96996408D01*
X168397619Y-97234503D01*
X168445238Y-97329741D01*
X168492857Y-97377360D01*
X168588095Y-97424979D01*
X168683333Y-97424979D01*
X168778571Y-97377360D01*
X168826190Y-97329741D01*
X168873809Y-97234503D01*
X168921428Y-97044027D01*
X168969047Y-96948789D01*
X169016666Y-96901170D01*
X169111904Y-96853551D01*
X169207142Y-96853551D01*
X169302380Y-96901170D01*
X169350000Y-96948789D01*
X169397619Y-97044027D01*
X169397619Y-97282122D01*
X169350000Y-97424979D01*
X169397619Y-97758313D02*
X168397619Y-97996408D01*
X169111904Y-98186884D01*
X168397619Y-98377360D01*
X169397619Y-98615456D01*
X168492857Y-99567836D02*
X168445238Y-99520217D01*
X168397619Y-99377360D01*
X168397619Y-99282122D01*
X168445238Y-99139265D01*
X168540476Y-99044027D01*
X168635714Y-98996408D01*
X168826190Y-98948789D01*
X168969047Y-98948789D01*
X169159523Y-98996408D01*
X169254761Y-99044027D01*
X169350000Y-99139265D01*
X169397619Y-99282122D01*
X169397619Y-99377360D01*
X169350000Y-99520217D01*
X169302380Y-99567836D01*
X168397619Y-100472598D02*
X168397619Y-99996408D01*
X169397619Y-99996408D01*
X168397619Y-100805932D02*
X169397619Y-100805932D01*
X168397619Y-101377360D02*
X168969047Y-100948789D01*
X169397619Y-101377360D02*
X168826190Y-100805932D01*
X98747619Y-95442857D02*
X99747619Y-95442857D01*
X98747619Y-96014285D01*
X99747619Y-96014285D01*
X99271428Y-96490476D02*
X99271428Y-96823809D01*
X98747619Y-96966666D02*
X98747619Y-96490476D01*
X99747619Y-96490476D01*
X99747619Y-96966666D01*
X99747619Y-97585714D02*
X99747619Y-97776190D01*
X99700000Y-97871428D01*
X99604761Y-97966666D01*
X99414285Y-98014285D01*
X99080952Y-98014285D01*
X98890476Y-97966666D01*
X98795238Y-97871428D01*
X98747619Y-97776190D01*
X98747619Y-97585714D01*
X98795238Y-97490476D01*
X98890476Y-97395238D01*
X99080952Y-97347619D01*
X99414285Y-97347619D01*
X99604761Y-97395238D01*
X99700000Y-97490476D01*
X99747619Y-97585714D01*
X98747619Y-99204761D02*
X99747619Y-99204761D01*
X99747619Y-99585714D01*
X99700000Y-99680952D01*
X99652380Y-99728571D01*
X99557142Y-99776190D01*
X99414285Y-99776190D01*
X99319047Y-99728571D01*
X99271428Y-99680952D01*
X99223809Y-99585714D01*
X99223809Y-99204761D01*
X98747619Y-100204761D02*
X99747619Y-100204761D01*
X99747619Y-100585714D02*
X98747619Y-101252380D01*
X99747619Y-101252380D02*
X98747619Y-100585714D01*
X171245238Y-96958313D02*
X171197619Y-97101170D01*
X171197619Y-97339265D01*
X171245238Y-97434503D01*
X171292857Y-97482122D01*
X171388095Y-97529741D01*
X171483333Y-97529741D01*
X171578571Y-97482122D01*
X171626190Y-97434503D01*
X171673809Y-97339265D01*
X171721428Y-97148789D01*
X171769047Y-97053551D01*
X171816666Y-97005932D01*
X171911904Y-96958313D01*
X172007142Y-96958313D01*
X172102380Y-97005932D01*
X172150000Y-97053551D01*
X172197619Y-97148789D01*
X172197619Y-97386884D01*
X172150000Y-97529741D01*
X172197619Y-97863075D02*
X171197619Y-98101170D01*
X171911904Y-98291646D01*
X171197619Y-98482122D01*
X172197619Y-98720217D01*
X171197619Y-99101170D02*
X172197619Y-99101170D01*
X172197619Y-99339265D01*
X172150000Y-99482122D01*
X172054761Y-99577360D01*
X171959523Y-99624979D01*
X171769047Y-99672598D01*
X171626190Y-99672598D01*
X171435714Y-99624979D01*
X171340476Y-99577360D01*
X171245238Y-99482122D01*
X171197619Y-99339265D01*
X171197619Y-99101170D01*
%TO.C,C3*%
X217447142Y-111972122D02*
X217494761Y-112019741D01*
X217542380Y-112162598D01*
X217542380Y-112257836D01*
X217494761Y-112400694D01*
X217399523Y-112495932D01*
X217304285Y-112543551D01*
X217113809Y-112591170D01*
X216970952Y-112591170D01*
X216780476Y-112543551D01*
X216685238Y-112495932D01*
X216590000Y-112400694D01*
X216542380Y-112257836D01*
X216542380Y-112162598D01*
X216590000Y-112019741D01*
X216637619Y-111972122D01*
X216542380Y-111638789D02*
X216542380Y-111019741D01*
X216923333Y-111353075D01*
X216923333Y-111210217D01*
X216970952Y-111114979D01*
X217018571Y-111067360D01*
X217113809Y-111019741D01*
X217351904Y-111019741D01*
X217447142Y-111067360D01*
X217494761Y-111114979D01*
X217542380Y-111210217D01*
X217542380Y-111495932D01*
X217494761Y-111591170D01*
X217447142Y-111638789D01*
%TO.C,C11*%
X197736342Y-108648600D02*
X197688723Y-108696219D01*
X197545866Y-108743838D01*
X197450628Y-108743838D01*
X197307771Y-108696219D01*
X197212533Y-108600981D01*
X197164914Y-108505743D01*
X197117295Y-108315267D01*
X197117295Y-108172410D01*
X197164914Y-107981934D01*
X197212533Y-107886696D01*
X197307771Y-107791458D01*
X197450628Y-107743838D01*
X197545866Y-107743838D01*
X197688723Y-107791458D01*
X197736342Y-107839077D01*
X198688723Y-108743838D02*
X198117295Y-108743838D01*
X198403009Y-108743838D02*
X198403009Y-107743838D01*
X198307771Y-107886696D01*
X198212533Y-107981934D01*
X198117295Y-108029553D01*
X199641104Y-108743838D02*
X199069676Y-108743838D01*
X199355390Y-108743838D02*
X199355390Y-107743838D01*
X199260152Y-107886696D01*
X199164914Y-107981934D01*
X199069676Y-108029553D01*
%TO.C,C101*%
X199574152Y-99614600D02*
X199526533Y-99662219D01*
X199383676Y-99709838D01*
X199288438Y-99709838D01*
X199145580Y-99662219D01*
X199050342Y-99566981D01*
X199002723Y-99471743D01*
X198955104Y-99281267D01*
X198955104Y-99138410D01*
X199002723Y-98947934D01*
X199050342Y-98852696D01*
X199145580Y-98757458D01*
X199288438Y-98709838D01*
X199383676Y-98709838D01*
X199526533Y-98757458D01*
X199574152Y-98805077D01*
X200526533Y-99709838D02*
X199955104Y-99709838D01*
X200240819Y-99709838D02*
X200240819Y-98709838D01*
X200145580Y-98852696D01*
X200050342Y-98947934D01*
X199955104Y-98995553D01*
X201145580Y-98709838D02*
X201240819Y-98709838D01*
X201336057Y-98757458D01*
X201383676Y-98805077D01*
X201431295Y-98900315D01*
X201478914Y-99090791D01*
X201478914Y-99328886D01*
X201431295Y-99519362D01*
X201383676Y-99614600D01*
X201336057Y-99662219D01*
X201240819Y-99709838D01*
X201145580Y-99709838D01*
X201050342Y-99662219D01*
X201002723Y-99614600D01*
X200955104Y-99519362D01*
X200907485Y-99328886D01*
X200907485Y-99090791D01*
X200955104Y-98900315D01*
X201002723Y-98805077D01*
X201050342Y-98757458D01*
X201145580Y-98709838D01*
X202431295Y-99709838D02*
X201859866Y-99709838D01*
X202145580Y-99709838D02*
X202145580Y-98709838D01*
X202050342Y-98852696D01*
X201955104Y-98947934D01*
X201859866Y-98995553D01*
%TO.C,C26*%
X176936342Y-105202600D02*
X176888723Y-105250219D01*
X176745866Y-105297838D01*
X176650628Y-105297838D01*
X176507771Y-105250219D01*
X176412533Y-105154981D01*
X176364914Y-105059743D01*
X176317295Y-104869267D01*
X176317295Y-104726410D01*
X176364914Y-104535934D01*
X176412533Y-104440696D01*
X176507771Y-104345458D01*
X176650628Y-104297838D01*
X176745866Y-104297838D01*
X176888723Y-104345458D01*
X176936342Y-104393077D01*
X177317295Y-104393077D02*
X177364914Y-104345458D01*
X177460152Y-104297838D01*
X177698247Y-104297838D01*
X177793485Y-104345458D01*
X177841104Y-104393077D01*
X177888723Y-104488315D01*
X177888723Y-104583553D01*
X177841104Y-104726410D01*
X177269676Y-105297838D01*
X177888723Y-105297838D01*
X178745866Y-104297838D02*
X178555390Y-104297838D01*
X178460152Y-104345458D01*
X178412533Y-104393077D01*
X178317295Y-104535934D01*
X178269676Y-104726410D01*
X178269676Y-105107362D01*
X178317295Y-105202600D01*
X178364914Y-105250219D01*
X178460152Y-105297838D01*
X178650628Y-105297838D01*
X178745866Y-105250219D01*
X178793485Y-105202600D01*
X178841104Y-105107362D01*
X178841104Y-104869267D01*
X178793485Y-104774029D01*
X178745866Y-104726410D01*
X178650628Y-104678791D01*
X178460152Y-104678791D01*
X178364914Y-104726410D01*
X178317295Y-104774029D01*
X178269676Y-104869267D01*
%TO.C,C4*%
X213226533Y-103678600D02*
X213178914Y-103726219D01*
X213036057Y-103773838D01*
X212940819Y-103773838D01*
X212797961Y-103726219D01*
X212702723Y-103630981D01*
X212655104Y-103535743D01*
X212607485Y-103345267D01*
X212607485Y-103202410D01*
X212655104Y-103011934D01*
X212702723Y-102916696D01*
X212797961Y-102821458D01*
X212940819Y-102773838D01*
X213036057Y-102773838D01*
X213178914Y-102821458D01*
X213226533Y-102869077D01*
X214083676Y-103107172D02*
X214083676Y-103773838D01*
X213845580Y-102726219D02*
X213607485Y-103440505D01*
X214226533Y-103440505D01*
%TO.C,LED1*%
X82352380Y-98419047D02*
X82352380Y-98895238D01*
X81352380Y-98895238D01*
X81828571Y-98085714D02*
X81828571Y-97752380D01*
X82352380Y-97609523D02*
X82352380Y-98085714D01*
X81352380Y-98085714D01*
X81352380Y-97609523D01*
X82352380Y-97180952D02*
X81352380Y-97180952D01*
X81352380Y-96942857D01*
X81400000Y-96800000D01*
X81495238Y-96704761D01*
X81590476Y-96657142D01*
X81780952Y-96609523D01*
X81923809Y-96609523D01*
X82114285Y-96657142D01*
X82209523Y-96704761D01*
X82304761Y-96800000D01*
X82352380Y-96942857D01*
X82352380Y-97180952D01*
X82352380Y-95657142D02*
X82352380Y-96228571D01*
X82352380Y-95942857D02*
X81352380Y-95942857D01*
X81495238Y-96038095D01*
X81590476Y-96133333D01*
X81638095Y-96228571D01*
X80452380Y-92864285D02*
X80452380Y-93435714D01*
X80452380Y-93150000D02*
X79452380Y-93150000D01*
X79595238Y-93245238D01*
X79690476Y-93340476D01*
X79738095Y-93435714D01*
%TO.C,J8*%
X166172380Y-95348789D02*
X166886666Y-95348789D01*
X167029523Y-95396408D01*
X167124761Y-95491646D01*
X167172380Y-95634503D01*
X167172380Y-95729741D01*
X166600952Y-94729741D02*
X166553333Y-94824979D01*
X166505714Y-94872598D01*
X166410476Y-94920217D01*
X166362857Y-94920217D01*
X166267619Y-94872598D01*
X166220000Y-94824979D01*
X166172380Y-94729741D01*
X166172380Y-94539265D01*
X166220000Y-94444027D01*
X166267619Y-94396408D01*
X166362857Y-94348789D01*
X166410476Y-94348789D01*
X166505714Y-94396408D01*
X166553333Y-94444027D01*
X166600952Y-94539265D01*
X166600952Y-94729741D01*
X166648571Y-94824979D01*
X166696190Y-94872598D01*
X166791428Y-94920217D01*
X166981904Y-94920217D01*
X167077142Y-94872598D01*
X167124761Y-94824979D01*
X167172380Y-94729741D01*
X167172380Y-94539265D01*
X167124761Y-94444027D01*
X167077142Y-94396408D01*
X166981904Y-94348789D01*
X166791428Y-94348789D01*
X166696190Y-94396408D01*
X166648571Y-94444027D01*
X166600952Y-94539265D01*
%TO.C,R5*%
X195983333Y-106537836D02*
X195650000Y-106061646D01*
X195411904Y-106537836D02*
X195411904Y-105537836D01*
X195792857Y-105537836D01*
X195888095Y-105585456D01*
X195935714Y-105633075D01*
X195983333Y-105728313D01*
X195983333Y-105871170D01*
X195935714Y-105966408D01*
X195888095Y-106014027D01*
X195792857Y-106061646D01*
X195411904Y-106061646D01*
X196888095Y-105537836D02*
X196411904Y-105537836D01*
X196364285Y-106014027D01*
X196411904Y-105966408D01*
X196507142Y-105918789D01*
X196745238Y-105918789D01*
X196840476Y-105966408D01*
X196888095Y-106014027D01*
X196935714Y-106109265D01*
X196935714Y-106347360D01*
X196888095Y-106442598D01*
X196840476Y-106490217D01*
X196745238Y-106537836D01*
X196507142Y-106537836D01*
X196411904Y-106490217D01*
X196364285Y-106442598D01*
%TO.C,U4*%
X168902380Y-107277360D02*
X169711904Y-107277360D01*
X169807142Y-107229741D01*
X169854761Y-107182122D01*
X169902380Y-107086884D01*
X169902380Y-106896408D01*
X169854761Y-106801170D01*
X169807142Y-106753551D01*
X169711904Y-106705932D01*
X168902380Y-106705932D01*
X169235714Y-105801170D02*
X169902380Y-105801170D01*
X168854761Y-106039265D02*
X169569047Y-106277360D01*
X169569047Y-105658313D01*
D13*
%TO.C,U2*%
X148274747Y-112460758D02*
X148517378Y-112460758D01*
X148545922Y-112446485D01*
X148560195Y-112432213D01*
X148574467Y-112403668D01*
X148574467Y-112346579D01*
X148560195Y-112318034D01*
X148545922Y-112303761D01*
X148517378Y-112289489D01*
X148274747Y-112289489D01*
X148303292Y-112161038D02*
X148289020Y-112146765D01*
X148274747Y-112118220D01*
X148274747Y-112046859D01*
X148289020Y-112018314D01*
X148303292Y-112004041D01*
X148331837Y-111989769D01*
X148360381Y-111989769D01*
X148403199Y-112004041D01*
X148574467Y-112175310D01*
X148574467Y-111989769D01*
X147273987Y-112995972D02*
X147273987Y-113138696D01*
X146974267Y-113138696D01*
X146974267Y-112938882D02*
X146974267Y-112767614D01*
X147273987Y-112853248D02*
X146974267Y-112853248D01*
X146974267Y-112710524D02*
X147273987Y-112610618D01*
X146974267Y-112510711D01*
X147159808Y-112410804D02*
X147159808Y-112182446D01*
X147102719Y-111996905D02*
X147088446Y-112025450D01*
X147074174Y-112039722D01*
X147045629Y-112053995D01*
X147031357Y-112053995D01*
X147002812Y-112039722D01*
X146988540Y-112025450D01*
X146974267Y-111996905D01*
X146974267Y-111939816D01*
X146988540Y-111911271D01*
X147002812Y-111896999D01*
X147031357Y-111882726D01*
X147045629Y-111882726D01*
X147074174Y-111896999D01*
X147088446Y-111911271D01*
X147102719Y-111939816D01*
X147102719Y-111996905D01*
X147116991Y-112025450D01*
X147131263Y-112039722D01*
X147159808Y-112053995D01*
X147216898Y-112053995D01*
X147245442Y-112039722D01*
X147259715Y-112025450D01*
X147273987Y-111996905D01*
X147273987Y-111939816D01*
X147259715Y-111911271D01*
X147245442Y-111896999D01*
X147216898Y-111882726D01*
X147159808Y-111882726D01*
X147131263Y-111896999D01*
X147116991Y-111911271D01*
X147102719Y-111939816D01*
X147273987Y-111597279D02*
X147273987Y-111768547D01*
X147273987Y-111682913D02*
X146974267Y-111682913D01*
X147017084Y-111711458D01*
X147045629Y-111740002D01*
X147059901Y-111768547D01*
X147074174Y-111340376D02*
X147273987Y-111340376D01*
X146959995Y-111411738D02*
X147174080Y-111483100D01*
X147174080Y-111297559D01*
D10*
%TO.C,X1*%
X205651676Y-117591838D02*
X206318342Y-118591838D01*
X206318342Y-117591838D02*
X205651676Y-118591838D01*
X207223104Y-118591838D02*
X206651676Y-118591838D01*
X206937390Y-118591838D02*
X206937390Y-117591838D01*
X206842152Y-117734696D01*
X206746914Y-117829934D01*
X206651676Y-117877553D01*
%TO.C,D3*%
X166326380Y-111353551D02*
X165326380Y-111353551D01*
X165326380Y-111115456D01*
X165374000Y-110972598D01*
X165469238Y-110877360D01*
X165564476Y-110829741D01*
X165754952Y-110782122D01*
X165897809Y-110782122D01*
X166088285Y-110829741D01*
X166183523Y-110877360D01*
X166278761Y-110972598D01*
X166326380Y-111115456D01*
X166326380Y-111353551D01*
X165326380Y-110448789D02*
X165326380Y-109829741D01*
X165707333Y-110163075D01*
X165707333Y-110020217D01*
X165754952Y-109924979D01*
X165802571Y-109877360D01*
X165897809Y-109829741D01*
X166135904Y-109829741D01*
X166231142Y-109877360D01*
X166278761Y-109924979D01*
X166326380Y-110020217D01*
X166326380Y-110305932D01*
X166278761Y-110401170D01*
X166231142Y-110448789D01*
%TO.C,Q1*%
X135904761Y-111165619D02*
X135809523Y-111118000D01*
X135714285Y-111022761D01*
X135571428Y-110879904D01*
X135476190Y-110832285D01*
X135380952Y-110832285D01*
X135428571Y-111070380D02*
X135333333Y-111022761D01*
X135238095Y-110927523D01*
X135190476Y-110737047D01*
X135190476Y-110403714D01*
X135238095Y-110213238D01*
X135333333Y-110118000D01*
X135428571Y-110070380D01*
X135619047Y-110070380D01*
X135714285Y-110118000D01*
X135809523Y-110213238D01*
X135857142Y-110403714D01*
X135857142Y-110737047D01*
X135809523Y-110927523D01*
X135714285Y-111022761D01*
X135619047Y-111070380D01*
X135428571Y-111070380D01*
X136809523Y-111070380D02*
X136238095Y-111070380D01*
X136523809Y-111070380D02*
X136523809Y-110070380D01*
X136428571Y-110213238D01*
X136333333Y-110308476D01*
X136238095Y-110356095D01*
%TO.C,L1*%
X199100323Y-96830124D02*
X199100323Y-97134886D01*
X198460323Y-97134886D01*
X199100323Y-96281553D02*
X199100323Y-96647267D01*
X199100323Y-96464410D02*
X198460323Y-96464410D01*
X198551752Y-96525362D01*
X198612704Y-96586315D01*
X198643180Y-96647267D01*
%TO.C,D4*%
X113910580Y-98271210D02*
X112910580Y-98271210D01*
X112910580Y-98033115D01*
X112958200Y-97890257D01*
X113053438Y-97795019D01*
X113148676Y-97747400D01*
X113339152Y-97699781D01*
X113482009Y-97699781D01*
X113672485Y-97747400D01*
X113767723Y-97795019D01*
X113862961Y-97890257D01*
X113910580Y-98033115D01*
X113910580Y-98271210D01*
X113243914Y-96842638D02*
X113910580Y-96842638D01*
X112862961Y-97080734D02*
X113577247Y-97318829D01*
X113577247Y-96699781D01*
%TO.C,SW3*%
X171954761Y-110496791D02*
X172002380Y-110353934D01*
X172002380Y-110115838D01*
X171954761Y-110020600D01*
X171907142Y-109972981D01*
X171811904Y-109925362D01*
X171716666Y-109925362D01*
X171621428Y-109972981D01*
X171573809Y-110020600D01*
X171526190Y-110115838D01*
X171478571Y-110306315D01*
X171430952Y-110401553D01*
X171383333Y-110449172D01*
X171288095Y-110496791D01*
X171192857Y-110496791D01*
X171097619Y-110449172D01*
X171050000Y-110401553D01*
X171002380Y-110306315D01*
X171002380Y-110068219D01*
X171050000Y-109925362D01*
X171002380Y-109592029D02*
X172002380Y-109353934D01*
X171288095Y-109163458D01*
X172002380Y-108972981D01*
X171002380Y-108734886D01*
X171002380Y-108449172D02*
X171002380Y-107830124D01*
X171383333Y-108163458D01*
X171383333Y-108020600D01*
X171430952Y-107925362D01*
X171478571Y-107877743D01*
X171573809Y-107830124D01*
X171811904Y-107830124D01*
X171907142Y-107877743D01*
X171954761Y-107925362D01*
X172002380Y-108020600D01*
X172002380Y-108306315D01*
X171954761Y-108401553D01*
X171907142Y-108449172D01*
%TO.C,J5*%
X109357380Y-112641333D02*
X110071666Y-112641333D01*
X110214523Y-112688952D01*
X110309761Y-112784190D01*
X110357380Y-112927047D01*
X110357380Y-113022285D01*
X109357380Y-111688952D02*
X109357380Y-112165142D01*
X109833571Y-112212761D01*
X109785952Y-112165142D01*
X109738333Y-112069904D01*
X109738333Y-111831809D01*
X109785952Y-111736571D01*
X109833571Y-111688952D01*
X109928809Y-111641333D01*
X110166904Y-111641333D01*
X110262142Y-111688952D01*
X110309761Y-111736571D01*
X110357380Y-111831809D01*
X110357380Y-112069904D01*
X110309761Y-112165142D01*
X110262142Y-112212761D01*
%TO.C,R6*%
X146733333Y-106770380D02*
X146400000Y-106294190D01*
X146161904Y-106770380D02*
X146161904Y-105770380D01*
X146542857Y-105770380D01*
X146638095Y-105818000D01*
X146685714Y-105865619D01*
X146733333Y-105960857D01*
X146733333Y-106103714D01*
X146685714Y-106198952D01*
X146638095Y-106246571D01*
X146542857Y-106294190D01*
X146161904Y-106294190D01*
X147590476Y-105770380D02*
X147400000Y-105770380D01*
X147304761Y-105818000D01*
X147257142Y-105865619D01*
X147161904Y-106008476D01*
X147114285Y-106198952D01*
X147114285Y-106579904D01*
X147161904Y-106675142D01*
X147209523Y-106722761D01*
X147304761Y-106770380D01*
X147495238Y-106770380D01*
X147590476Y-106722761D01*
X147638095Y-106675142D01*
X147685714Y-106579904D01*
X147685714Y-106341809D01*
X147638095Y-106246571D01*
X147590476Y-106198952D01*
X147495238Y-106151333D01*
X147304761Y-106151333D01*
X147209523Y-106198952D01*
X147161904Y-106246571D01*
X147114285Y-106341809D01*
%TO.C,R4*%
X196716533Y-98185838D02*
X196383200Y-97709648D01*
X196145104Y-98185838D02*
X196145104Y-97185838D01*
X196526057Y-97185838D01*
X196621295Y-97233458D01*
X196668914Y-97281077D01*
X196716533Y-97376315D01*
X196716533Y-97519172D01*
X196668914Y-97614410D01*
X196621295Y-97662029D01*
X196526057Y-97709648D01*
X196145104Y-97709648D01*
X197573676Y-97519172D02*
X197573676Y-98185838D01*
X197335580Y-97138219D02*
X197097485Y-97852505D01*
X197716533Y-97852505D01*
%TO.C,R1*%
X219002380Y-105482122D02*
X218526190Y-105815456D01*
X219002380Y-106053551D02*
X218002380Y-106053551D01*
X218002380Y-105672598D01*
X218050000Y-105577360D01*
X218097619Y-105529741D01*
X218192857Y-105482122D01*
X218335714Y-105482122D01*
X218430952Y-105529741D01*
X218478571Y-105577360D01*
X218526190Y-105672598D01*
X218526190Y-106053551D01*
X219002380Y-104529741D02*
X219002380Y-105101170D01*
X219002380Y-104815456D02*
X218002380Y-104815456D01*
X218145238Y-104910694D01*
X218240476Y-105005932D01*
X218288095Y-105101170D01*
%TO.C,C12*%
X188748342Y-111584315D02*
X188795961Y-111631934D01*
X188843580Y-111774791D01*
X188843580Y-111870029D01*
X188795961Y-112012886D01*
X188700723Y-112108124D01*
X188605485Y-112155743D01*
X188415009Y-112203362D01*
X188272152Y-112203362D01*
X188081676Y-112155743D01*
X187986438Y-112108124D01*
X187891200Y-112012886D01*
X187843580Y-111870029D01*
X187843580Y-111774791D01*
X187891200Y-111631934D01*
X187938819Y-111584315D01*
X188843580Y-110631934D02*
X188843580Y-111203362D01*
X188843580Y-110917648D02*
X187843580Y-110917648D01*
X187986438Y-111012886D01*
X188081676Y-111108124D01*
X188129295Y-111203362D01*
X187938819Y-110250981D02*
X187891200Y-110203362D01*
X187843580Y-110108124D01*
X187843580Y-109870029D01*
X187891200Y-109774791D01*
X187938819Y-109727172D01*
X188034057Y-109679553D01*
X188129295Y-109679553D01*
X188272152Y-109727172D01*
X188843580Y-110298600D01*
X188843580Y-109679553D01*
%TO.C,C6*%
X211991733Y-115296998D02*
X211944114Y-115344617D01*
X211801257Y-115392236D01*
X211706019Y-115392236D01*
X211563161Y-115344617D01*
X211467923Y-115249379D01*
X211420304Y-115154141D01*
X211372685Y-114963665D01*
X211372685Y-114820808D01*
X211420304Y-114630332D01*
X211467923Y-114535094D01*
X211563161Y-114439856D01*
X211706019Y-114392236D01*
X211801257Y-114392236D01*
X211944114Y-114439856D01*
X211991733Y-114487475D01*
X212848876Y-114392236D02*
X212658400Y-114392236D01*
X212563161Y-114439856D01*
X212515542Y-114487475D01*
X212420304Y-114630332D01*
X212372685Y-114820808D01*
X212372685Y-115201760D01*
X212420304Y-115296998D01*
X212467923Y-115344617D01*
X212563161Y-115392236D01*
X212753638Y-115392236D01*
X212848876Y-115344617D01*
X212896495Y-115296998D01*
X212944114Y-115201760D01*
X212944114Y-114963665D01*
X212896495Y-114868427D01*
X212848876Y-114820808D01*
X212753638Y-114773189D01*
X212563161Y-114773189D01*
X212467923Y-114820808D01*
X212420304Y-114868427D01*
X212372685Y-114963665D01*
%TO.C,R7*%
X142333333Y-108170380D02*
X142000000Y-107694190D01*
X141761904Y-108170380D02*
X141761904Y-107170380D01*
X142142857Y-107170380D01*
X142238095Y-107218000D01*
X142285714Y-107265619D01*
X142333333Y-107360857D01*
X142333333Y-107503714D01*
X142285714Y-107598952D01*
X142238095Y-107646571D01*
X142142857Y-107694190D01*
X141761904Y-107694190D01*
X142666666Y-107170380D02*
X143333333Y-107170380D01*
X142904761Y-108170380D01*
%TO.C,C24*%
X180492342Y-100122600D02*
X180444723Y-100170219D01*
X180301866Y-100217838D01*
X180206628Y-100217838D01*
X180063771Y-100170219D01*
X179968533Y-100074981D01*
X179920914Y-99979743D01*
X179873295Y-99789267D01*
X179873295Y-99646410D01*
X179920914Y-99455934D01*
X179968533Y-99360696D01*
X180063771Y-99265458D01*
X180206628Y-99217838D01*
X180301866Y-99217838D01*
X180444723Y-99265458D01*
X180492342Y-99313077D01*
X180873295Y-99313077D02*
X180920914Y-99265458D01*
X181016152Y-99217838D01*
X181254247Y-99217838D01*
X181349485Y-99265458D01*
X181397104Y-99313077D01*
X181444723Y-99408315D01*
X181444723Y-99503553D01*
X181397104Y-99646410D01*
X180825676Y-100217838D01*
X181444723Y-100217838D01*
X182301866Y-99551172D02*
X182301866Y-100217838D01*
X182063771Y-99170219D02*
X181825676Y-99884505D01*
X182444723Y-99884505D01*
%TO.C,R12*%
X180746342Y-104281838D02*
X180413009Y-103805648D01*
X180174914Y-104281838D02*
X180174914Y-103281838D01*
X180555866Y-103281838D01*
X180651104Y-103329458D01*
X180698723Y-103377077D01*
X180746342Y-103472315D01*
X180746342Y-103615172D01*
X180698723Y-103710410D01*
X180651104Y-103758029D01*
X180555866Y-103805648D01*
X180174914Y-103805648D01*
X181698723Y-104281838D02*
X181127295Y-104281838D01*
X181413009Y-104281838D02*
X181413009Y-103281838D01*
X181317771Y-103424696D01*
X181222533Y-103519934D01*
X181127295Y-103567553D01*
X182079676Y-103377077D02*
X182127295Y-103329458D01*
X182222533Y-103281838D01*
X182460628Y-103281838D01*
X182555866Y-103329458D01*
X182603485Y-103377077D01*
X182651104Y-103472315D01*
X182651104Y-103567553D01*
X182603485Y-103710410D01*
X182032057Y-104281838D01*
X182651104Y-104281838D01*
%TO.C,SW1*%
X84115961Y-98740646D02*
X84163580Y-98597789D01*
X84163580Y-98359693D01*
X84115961Y-98264455D01*
X84068342Y-98216836D01*
X83973104Y-98169217D01*
X83877866Y-98169217D01*
X83782628Y-98216836D01*
X83735009Y-98264455D01*
X83687390Y-98359693D01*
X83639771Y-98550170D01*
X83592152Y-98645408D01*
X83544533Y-98693027D01*
X83449295Y-98740646D01*
X83354057Y-98740646D01*
X83258819Y-98693027D01*
X83211200Y-98645408D01*
X83163580Y-98550170D01*
X83163580Y-98312074D01*
X83211200Y-98169217D01*
X83163580Y-97835884D02*
X84163580Y-97597789D01*
X83449295Y-97407313D01*
X84163580Y-97216836D01*
X83163580Y-96978741D01*
X84163580Y-96073979D02*
X84163580Y-96645408D01*
X84163580Y-96359693D02*
X83163580Y-96359693D01*
X83306438Y-96454932D01*
X83401676Y-96550170D01*
X83449295Y-96645408D01*
%TO.C,J7*%
X200554380Y-116887791D02*
X201268666Y-116887791D01*
X201411523Y-116935410D01*
X201506761Y-117030648D01*
X201554380Y-117173505D01*
X201554380Y-117268743D01*
X200554380Y-116506838D02*
X200554380Y-115840172D01*
X201554380Y-116268743D01*
%TO.C,R13*%
X180746342Y-103011838D02*
X180413009Y-102535648D01*
X180174914Y-103011838D02*
X180174914Y-102011838D01*
X180555866Y-102011838D01*
X180651104Y-102059458D01*
X180698723Y-102107077D01*
X180746342Y-102202315D01*
X180746342Y-102345172D01*
X180698723Y-102440410D01*
X180651104Y-102488029D01*
X180555866Y-102535648D01*
X180174914Y-102535648D01*
X181698723Y-103011838D02*
X181127295Y-103011838D01*
X181413009Y-103011838D02*
X181413009Y-102011838D01*
X181317771Y-102154696D01*
X181222533Y-102249934D01*
X181127295Y-102297553D01*
X182032057Y-102011838D02*
X182651104Y-102011838D01*
X182317771Y-102392791D01*
X182460628Y-102392791D01*
X182555866Y-102440410D01*
X182603485Y-102488029D01*
X182651104Y-102583267D01*
X182651104Y-102821362D01*
X182603485Y-102916600D01*
X182555866Y-102964219D01*
X182460628Y-103011838D01*
X182174914Y-103011838D01*
X182079676Y-102964219D01*
X182032057Y-102916600D01*
%TO.C,C23*%
X180746342Y-101138600D02*
X180698723Y-101186219D01*
X180555866Y-101233838D01*
X180460628Y-101233838D01*
X180317771Y-101186219D01*
X180222533Y-101090981D01*
X180174914Y-100995743D01*
X180127295Y-100805267D01*
X180127295Y-100662410D01*
X180174914Y-100471934D01*
X180222533Y-100376696D01*
X180317771Y-100281458D01*
X180460628Y-100233838D01*
X180555866Y-100233838D01*
X180698723Y-100281458D01*
X180746342Y-100329077D01*
X181127295Y-100329077D02*
X181174914Y-100281458D01*
X181270152Y-100233838D01*
X181508247Y-100233838D01*
X181603485Y-100281458D01*
X181651104Y-100329077D01*
X181698723Y-100424315D01*
X181698723Y-100519553D01*
X181651104Y-100662410D01*
X181079676Y-101233838D01*
X181698723Y-101233838D01*
X182032057Y-100233838D02*
X182651104Y-100233838D01*
X182317771Y-100614791D01*
X182460628Y-100614791D01*
X182555866Y-100662410D01*
X182603485Y-100710029D01*
X182651104Y-100805267D01*
X182651104Y-101043362D01*
X182603485Y-101138600D01*
X182555866Y-101186219D01*
X182460628Y-101233838D01*
X182174914Y-101233838D01*
X182079676Y-101186219D01*
X182032057Y-101138600D01*
%TO.C,C5*%
X202407142Y-112082122D02*
X202454761Y-112129741D01*
X202502380Y-112272598D01*
X202502380Y-112367836D01*
X202454761Y-112510694D01*
X202359523Y-112605932D01*
X202264285Y-112653551D01*
X202073809Y-112701170D01*
X201930952Y-112701170D01*
X201740476Y-112653551D01*
X201645238Y-112605932D01*
X201550000Y-112510694D01*
X201502380Y-112367836D01*
X201502380Y-112272598D01*
X201550000Y-112129741D01*
X201597619Y-112082122D01*
X201502380Y-111177360D02*
X201502380Y-111653551D01*
X201978571Y-111701170D01*
X201930952Y-111653551D01*
X201883333Y-111558313D01*
X201883333Y-111320217D01*
X201930952Y-111224979D01*
X201978571Y-111177360D01*
X202073809Y-111129741D01*
X202311904Y-111129741D01*
X202407142Y-111177360D01*
X202454761Y-111224979D01*
X202502380Y-111320217D01*
X202502380Y-111558313D01*
X202454761Y-111653551D01*
X202407142Y-111701170D01*
%TO.C,C21*%
X164607142Y-101972598D02*
X164559523Y-102020217D01*
X164416666Y-102067836D01*
X164321428Y-102067836D01*
X164178571Y-102020217D01*
X164083333Y-101924979D01*
X164035714Y-101829741D01*
X163988095Y-101639265D01*
X163988095Y-101496408D01*
X164035714Y-101305932D01*
X164083333Y-101210694D01*
X164178571Y-101115456D01*
X164321428Y-101067836D01*
X164416666Y-101067836D01*
X164559523Y-101115456D01*
X164607142Y-101163075D01*
X164988095Y-101163075D02*
X165035714Y-101115456D01*
X165130952Y-101067836D01*
X165369047Y-101067836D01*
X165464285Y-101115456D01*
X165511904Y-101163075D01*
X165559523Y-101258313D01*
X165559523Y-101353551D01*
X165511904Y-101496408D01*
X164940476Y-102067836D01*
X165559523Y-102067836D01*
X166511904Y-102067836D02*
X165940476Y-102067836D01*
X166226190Y-102067836D02*
X166226190Y-101067836D01*
X166130952Y-101210694D01*
X166035714Y-101305932D01*
X165940476Y-101353551D01*
%TO.C,C25*%
X197407142Y-100772598D02*
X197359523Y-100820217D01*
X197216666Y-100867836D01*
X197121428Y-100867836D01*
X196978571Y-100820217D01*
X196883333Y-100724979D01*
X196835714Y-100629741D01*
X196788095Y-100439265D01*
X196788095Y-100296408D01*
X196835714Y-100105932D01*
X196883333Y-100010694D01*
X196978571Y-99915456D01*
X197121428Y-99867836D01*
X197216666Y-99867836D01*
X197359523Y-99915456D01*
X197407142Y-99963075D01*
X197788095Y-99963075D02*
X197835714Y-99915456D01*
X197930952Y-99867836D01*
X198169047Y-99867836D01*
X198264285Y-99915456D01*
X198311904Y-99963075D01*
X198359523Y-100058313D01*
X198359523Y-100153551D01*
X198311904Y-100296408D01*
X197740476Y-100867836D01*
X198359523Y-100867836D01*
X199264285Y-99867836D02*
X198788095Y-99867836D01*
X198740476Y-100344027D01*
X198788095Y-100296408D01*
X198883333Y-100248789D01*
X199121428Y-100248789D01*
X199216666Y-100296408D01*
X199264285Y-100344027D01*
X199311904Y-100439265D01*
X199311904Y-100677360D01*
X199264285Y-100772598D01*
X199216666Y-100820217D01*
X199121428Y-100867836D01*
X198883333Y-100867836D01*
X198788095Y-100820217D01*
X198740476Y-100772598D01*
%TO.C,C1*%
X214307142Y-113582122D02*
X214354761Y-113629741D01*
X214402380Y-113772598D01*
X214402380Y-113867836D01*
X214354761Y-114010694D01*
X214259523Y-114105932D01*
X214164285Y-114153551D01*
X213973809Y-114201170D01*
X213830952Y-114201170D01*
X213640476Y-114153551D01*
X213545238Y-114105932D01*
X213450000Y-114010694D01*
X213402380Y-113867836D01*
X213402380Y-113772598D01*
X213450000Y-113629741D01*
X213497619Y-113582122D01*
X214402380Y-112629741D02*
X214402380Y-113201170D01*
X214402380Y-112915456D02*
X213402380Y-112915456D01*
X213545238Y-113010694D01*
X213640476Y-113105932D01*
X213688095Y-113201170D01*
%TO.C,J2*%
X78433333Y-110290619D02*
X78433333Y-109576333D01*
X78480952Y-109433476D01*
X78576190Y-109338238D01*
X78719047Y-109290619D01*
X78814285Y-109290619D01*
X78004761Y-110195380D02*
X77957142Y-110243000D01*
X77861904Y-110290619D01*
X77623809Y-110290619D01*
X77528571Y-110243000D01*
X77480952Y-110195380D01*
X77433333Y-110100142D01*
X77433333Y-110004904D01*
X77480952Y-109862047D01*
X78052380Y-109290619D01*
X77433333Y-109290619D01*
%TO.C,J3*%
X159352380Y-111691333D02*
X160066666Y-111691333D01*
X160209523Y-111738952D01*
X160304761Y-111834190D01*
X160352380Y-111977047D01*
X160352380Y-112072285D01*
X159352380Y-111310380D02*
X159352380Y-110691333D01*
X159733333Y-111024666D01*
X159733333Y-110881809D01*
X159780952Y-110786571D01*
X159828571Y-110738952D01*
X159923809Y-110691333D01*
X160161904Y-110691333D01*
X160257142Y-110738952D01*
X160304761Y-110786571D01*
X160352380Y-110881809D01*
X160352380Y-111167523D01*
X160304761Y-111262761D01*
X160257142Y-111310380D01*
%TO.C,U5*%
X185707295Y-99217838D02*
X185707295Y-100027362D01*
X185754914Y-100122600D01*
X185802533Y-100170219D01*
X185897771Y-100217838D01*
X186088247Y-100217838D01*
X186183485Y-100170219D01*
X186231104Y-100122600D01*
X186278723Y-100027362D01*
X186278723Y-99217838D01*
X187231104Y-99217838D02*
X186754914Y-99217838D01*
X186707295Y-99694029D01*
X186754914Y-99646410D01*
X186850152Y-99598791D01*
X187088247Y-99598791D01*
X187183485Y-99646410D01*
X187231104Y-99694029D01*
X187278723Y-99789267D01*
X187278723Y-100027362D01*
X187231104Y-100122600D01*
X187183485Y-100170219D01*
X187088247Y-100217838D01*
X186850152Y-100217838D01*
X186754914Y-100170219D01*
X186707295Y-100122600D01*
%TO.C,R8*%
X185783333Y-115037836D02*
X185450000Y-114561646D01*
X185211904Y-115037836D02*
X185211904Y-114037836D01*
X185592857Y-114037836D01*
X185688095Y-114085456D01*
X185735714Y-114133075D01*
X185783333Y-114228313D01*
X185783333Y-114371170D01*
X185735714Y-114466408D01*
X185688095Y-114514027D01*
X185592857Y-114561646D01*
X185211904Y-114561646D01*
X186354761Y-114466408D02*
X186259523Y-114418789D01*
X186211904Y-114371170D01*
X186164285Y-114275932D01*
X186164285Y-114228313D01*
X186211904Y-114133075D01*
X186259523Y-114085456D01*
X186354761Y-114037836D01*
X186545238Y-114037836D01*
X186640476Y-114085456D01*
X186688095Y-114133075D01*
X186735714Y-114228313D01*
X186735714Y-114275932D01*
X186688095Y-114371170D01*
X186640476Y-114418789D01*
X186545238Y-114466408D01*
X186354761Y-114466408D01*
X186259523Y-114514027D01*
X186211904Y-114561646D01*
X186164285Y-114656884D01*
X186164285Y-114847360D01*
X186211904Y-114942598D01*
X186259523Y-114990217D01*
X186354761Y-115037836D01*
X186545238Y-115037836D01*
X186640476Y-114990217D01*
X186688095Y-114942598D01*
X186735714Y-114847360D01*
X186735714Y-114656884D01*
X186688095Y-114561646D01*
X186640476Y-114514027D01*
X186545238Y-114466408D01*
D14*
%TO.C,IC1*%
X182524523Y-110855217D02*
X181254523Y-110855217D01*
X182403571Y-109524741D02*
X182464047Y-109585217D01*
X182524523Y-109766646D01*
X182524523Y-109887598D01*
X182464047Y-110069027D01*
X182343095Y-110189979D01*
X182222142Y-110250456D01*
X181980238Y-110310932D01*
X181798809Y-110310932D01*
X181556904Y-110250456D01*
X181435952Y-110189979D01*
X181315000Y-110069027D01*
X181254523Y-109887598D01*
X181254523Y-109766646D01*
X181315000Y-109585217D01*
X181375476Y-109524741D01*
X182524523Y-108315217D02*
X182524523Y-109040932D01*
X182524523Y-108678075D02*
X181254523Y-108678075D01*
X181435952Y-108799027D01*
X181556904Y-108919979D01*
X181617380Y-109040932D01*
D10*
%TO.C,C41*%
X211607142Y-104972598D02*
X211559523Y-105020217D01*
X211416666Y-105067836D01*
X211321428Y-105067836D01*
X211178571Y-105020217D01*
X211083333Y-104924979D01*
X211035714Y-104829741D01*
X210988095Y-104639265D01*
X210988095Y-104496408D01*
X211035714Y-104305932D01*
X211083333Y-104210694D01*
X211178571Y-104115456D01*
X211321428Y-104067836D01*
X211416666Y-104067836D01*
X211559523Y-104115456D01*
X211607142Y-104163075D01*
X212464285Y-104401170D02*
X212464285Y-105067836D01*
X212226190Y-104020217D02*
X211988095Y-104734503D01*
X212607142Y-104734503D01*
X213511904Y-105067836D02*
X212940476Y-105067836D01*
X213226190Y-105067836D02*
X213226190Y-104067836D01*
X213130952Y-104210694D01*
X213035714Y-104305932D01*
X212940476Y-104353551D01*
%TO.C,C10*%
X201707142Y-104596600D02*
X201659523Y-104644219D01*
X201516666Y-104691838D01*
X201421428Y-104691838D01*
X201278571Y-104644219D01*
X201183333Y-104548981D01*
X201135714Y-104453743D01*
X201088095Y-104263267D01*
X201088095Y-104120410D01*
X201135714Y-103929934D01*
X201183333Y-103834696D01*
X201278571Y-103739458D01*
X201421428Y-103691838D01*
X201516666Y-103691838D01*
X201659523Y-103739458D01*
X201707142Y-103787077D01*
X202659523Y-104691838D02*
X202088095Y-104691838D01*
X202373809Y-104691838D02*
X202373809Y-103691838D01*
X202278571Y-103834696D01*
X202183333Y-103929934D01*
X202088095Y-103977553D01*
X203278571Y-103691838D02*
X203373809Y-103691838D01*
X203469047Y-103739458D01*
X203516666Y-103787077D01*
X203564285Y-103882315D01*
X203611904Y-104072791D01*
X203611904Y-104310886D01*
X203564285Y-104501362D01*
X203516666Y-104596600D01*
X203469047Y-104644219D01*
X203373809Y-104691838D01*
X203278571Y-104691838D01*
X203183333Y-104644219D01*
X203135714Y-104596600D01*
X203088095Y-104501362D01*
X203040476Y-104310886D01*
X203040476Y-104072791D01*
X203088095Y-103882315D01*
X203135714Y-103787077D01*
X203183333Y-103739458D01*
X203278571Y-103691838D01*
%TO.C,R9*%
X114912533Y-95345495D02*
X114579200Y-94869305D01*
X114341104Y-95345495D02*
X114341104Y-94345495D01*
X114722057Y-94345495D01*
X114817295Y-94393115D01*
X114864914Y-94440734D01*
X114912533Y-94535972D01*
X114912533Y-94678829D01*
X114864914Y-94774067D01*
X114817295Y-94821686D01*
X114722057Y-94869305D01*
X114341104Y-94869305D01*
X115388723Y-95345495D02*
X115579200Y-95345495D01*
X115674438Y-95297876D01*
X115722057Y-95250257D01*
X115817295Y-95107400D01*
X115864914Y-94916924D01*
X115864914Y-94535972D01*
X115817295Y-94440734D01*
X115769676Y-94393115D01*
X115674438Y-94345495D01*
X115483961Y-94345495D01*
X115388723Y-94393115D01*
X115341104Y-94440734D01*
X115293485Y-94535972D01*
X115293485Y-94774067D01*
X115341104Y-94869305D01*
X115388723Y-94916924D01*
X115483961Y-94964543D01*
X115674438Y-94964543D01*
X115769676Y-94916924D01*
X115817295Y-94869305D01*
X115864914Y-94774067D01*
%TO.C,C9*%
X211153342Y-117441124D02*
X211200961Y-117488743D01*
X211248580Y-117631600D01*
X211248580Y-117726838D01*
X211200961Y-117869696D01*
X211105723Y-117964934D01*
X211010485Y-118012553D01*
X210820009Y-118060172D01*
X210677152Y-118060172D01*
X210486676Y-118012553D01*
X210391438Y-117964934D01*
X210296200Y-117869696D01*
X210248580Y-117726838D01*
X210248580Y-117631600D01*
X210296200Y-117488743D01*
X210343819Y-117441124D01*
X211248580Y-116964934D02*
X211248580Y-116774458D01*
X211200961Y-116679219D01*
X211153342Y-116631600D01*
X211010485Y-116536362D01*
X210820009Y-116488743D01*
X210439057Y-116488743D01*
X210343819Y-116536362D01*
X210296200Y-116583981D01*
X210248580Y-116679219D01*
X210248580Y-116869696D01*
X210296200Y-116964934D01*
X210343819Y-117012553D01*
X210439057Y-117060172D01*
X210677152Y-117060172D01*
X210772390Y-117012553D01*
X210820009Y-116964934D01*
X210867628Y-116869696D01*
X210867628Y-116679219D01*
X210820009Y-116583981D01*
X210772390Y-116536362D01*
X210677152Y-116488743D01*
%TO.C,C18*%
X180746342Y-102154600D02*
X180698723Y-102202219D01*
X180555866Y-102249838D01*
X180460628Y-102249838D01*
X180317771Y-102202219D01*
X180222533Y-102106981D01*
X180174914Y-102011743D01*
X180127295Y-101821267D01*
X180127295Y-101678410D01*
X180174914Y-101487934D01*
X180222533Y-101392696D01*
X180317771Y-101297458D01*
X180460628Y-101249838D01*
X180555866Y-101249838D01*
X180698723Y-101297458D01*
X180746342Y-101345077D01*
X181698723Y-102249838D02*
X181127295Y-102249838D01*
X181413009Y-102249838D02*
X181413009Y-101249838D01*
X181317771Y-101392696D01*
X181222533Y-101487934D01*
X181127295Y-101535553D01*
X182270152Y-101678410D02*
X182174914Y-101630791D01*
X182127295Y-101583172D01*
X182079676Y-101487934D01*
X182079676Y-101440315D01*
X182127295Y-101345077D01*
X182174914Y-101297458D01*
X182270152Y-101249838D01*
X182460628Y-101249838D01*
X182555866Y-101297458D01*
X182603485Y-101345077D01*
X182651104Y-101440315D01*
X182651104Y-101487934D01*
X182603485Y-101583172D01*
X182555866Y-101630791D01*
X182460628Y-101678410D01*
X182270152Y-101678410D01*
X182174914Y-101726029D01*
X182127295Y-101773648D01*
X182079676Y-101868886D01*
X182079676Y-102059362D01*
X182127295Y-102154600D01*
X182174914Y-102202219D01*
X182270152Y-102249838D01*
X182460628Y-102249838D01*
X182555866Y-102202219D01*
X182603485Y-102154600D01*
X182651104Y-102059362D01*
X182651104Y-101868886D01*
X182603485Y-101773648D01*
X182555866Y-101726029D01*
X182460628Y-101678410D01*
%TO.C,U1*%
X202579295Y-106381838D02*
X202579295Y-107191362D01*
X202626914Y-107286600D01*
X202674533Y-107334219D01*
X202769771Y-107381838D01*
X202960247Y-107381838D01*
X203055485Y-107334219D01*
X203103104Y-107286600D01*
X203150723Y-107191362D01*
X203150723Y-106381838D01*
X204150723Y-107381838D02*
X203579295Y-107381838D01*
X203865009Y-107381838D02*
X203865009Y-106381838D01*
X203769771Y-106524696D01*
X203674533Y-106619934D01*
X203579295Y-106667553D01*
%TO.C,J1*%
X173522380Y-94733333D02*
X174236666Y-94733333D01*
X174379523Y-94780952D01*
X174474761Y-94876190D01*
X174522380Y-95019047D01*
X174522380Y-95114285D01*
X174522380Y-93733333D02*
X174522380Y-94304761D01*
X174522380Y-94019047D02*
X173522380Y-94019047D01*
X173665238Y-94114285D01*
X173760476Y-94209523D01*
X173808095Y-94304761D01*
%TO.C,SW2*%
X110220961Y-98866448D02*
X110268580Y-98723591D01*
X110268580Y-98485495D01*
X110220961Y-98390257D01*
X110173342Y-98342638D01*
X110078104Y-98295019D01*
X109982866Y-98295019D01*
X109887628Y-98342638D01*
X109840009Y-98390257D01*
X109792390Y-98485495D01*
X109744771Y-98675972D01*
X109697152Y-98771210D01*
X109649533Y-98818829D01*
X109554295Y-98866448D01*
X109459057Y-98866448D01*
X109363819Y-98818829D01*
X109316200Y-98771210D01*
X109268580Y-98675972D01*
X109268580Y-98437876D01*
X109316200Y-98295019D01*
X109268580Y-97961686D02*
X110268580Y-97723591D01*
X109554295Y-97533115D01*
X110268580Y-97342638D01*
X109268580Y-97104543D01*
X109363819Y-96771210D02*
X109316200Y-96723591D01*
X109268580Y-96628353D01*
X109268580Y-96390257D01*
X109316200Y-96295019D01*
X109363819Y-96247400D01*
X109459057Y-96199781D01*
X109554295Y-96199781D01*
X109697152Y-96247400D01*
X110268580Y-96818829D01*
X110268580Y-96199781D01*
%TO.C,R3*%
X168183333Y-109567836D02*
X167850000Y-109091646D01*
X167611904Y-109567836D02*
X167611904Y-108567836D01*
X167992857Y-108567836D01*
X168088095Y-108615456D01*
X168135714Y-108663075D01*
X168183333Y-108758313D01*
X168183333Y-108901170D01*
X168135714Y-108996408D01*
X168088095Y-109044027D01*
X167992857Y-109091646D01*
X167611904Y-109091646D01*
X168516666Y-108567836D02*
X169135714Y-108567836D01*
X168802380Y-108948789D01*
X168945238Y-108948789D01*
X169040476Y-108996408D01*
X169088095Y-109044027D01*
X169135714Y-109139265D01*
X169135714Y-109377360D01*
X169088095Y-109472598D01*
X169040476Y-109520217D01*
X168945238Y-109567836D01*
X168659523Y-109567836D01*
X168564285Y-109520217D01*
X168516666Y-109472598D01*
%TO.C,C2*%
X215137142Y-107002122D02*
X215184761Y-107049741D01*
X215232380Y-107192598D01*
X215232380Y-107287836D01*
X215184761Y-107430694D01*
X215089523Y-107525932D01*
X214994285Y-107573551D01*
X214803809Y-107621170D01*
X214660952Y-107621170D01*
X214470476Y-107573551D01*
X214375238Y-107525932D01*
X214280000Y-107430694D01*
X214232380Y-107287836D01*
X214232380Y-107192598D01*
X214280000Y-107049741D01*
X214327619Y-107002122D01*
X214327619Y-106621170D02*
X214280000Y-106573551D01*
X214232380Y-106478313D01*
X214232380Y-106240217D01*
X214280000Y-106144979D01*
X214327619Y-106097360D01*
X214422857Y-106049741D01*
X214518095Y-106049741D01*
X214660952Y-106097360D01*
X215232380Y-106668789D01*
X215232380Y-106049741D01*
%TO.C,D6*%
X176511904Y-117367836D02*
X176511904Y-116367836D01*
X176750000Y-116367836D01*
X176892857Y-116415456D01*
X176988095Y-116510694D01*
X177035714Y-116605932D01*
X177083333Y-116796408D01*
X177083333Y-116939265D01*
X177035714Y-117129741D01*
X176988095Y-117224979D01*
X176892857Y-117320217D01*
X176750000Y-117367836D01*
X176511904Y-117367836D01*
X177940476Y-116367836D02*
X177750000Y-116367836D01*
X177654761Y-116415456D01*
X177607142Y-116463075D01*
X177511904Y-116605932D01*
X177464285Y-116796408D01*
X177464285Y-117177360D01*
X177511904Y-117272598D01*
X177559523Y-117320217D01*
X177654761Y-117367836D01*
X177845238Y-117367836D01*
X177940476Y-117320217D01*
X177988095Y-117272598D01*
X178035714Y-117177360D01*
X178035714Y-116939265D01*
X177988095Y-116844027D01*
X177940476Y-116796408D01*
X177845238Y-116748789D01*
X177654761Y-116748789D01*
X177559523Y-116796408D01*
X177511904Y-116844027D01*
X177464285Y-116939265D01*
%TO.C,C20*%
X179607142Y-106272598D02*
X179559523Y-106320217D01*
X179416666Y-106367836D01*
X179321428Y-106367836D01*
X179178571Y-106320217D01*
X179083333Y-106224979D01*
X179035714Y-106129741D01*
X178988095Y-105939265D01*
X178988095Y-105796408D01*
X179035714Y-105605932D01*
X179083333Y-105510694D01*
X179178571Y-105415456D01*
X179321428Y-105367836D01*
X179416666Y-105367836D01*
X179559523Y-105415456D01*
X179607142Y-105463075D01*
X179988095Y-105463075D02*
X180035714Y-105415456D01*
X180130952Y-105367836D01*
X180369047Y-105367836D01*
X180464285Y-105415456D01*
X180511904Y-105463075D01*
X180559523Y-105558313D01*
X180559523Y-105653551D01*
X180511904Y-105796408D01*
X179940476Y-106367836D01*
X180559523Y-106367836D01*
X181178571Y-105367836D02*
X181273809Y-105367836D01*
X181369047Y-105415456D01*
X181416666Y-105463075D01*
X181464285Y-105558313D01*
X181511904Y-105748789D01*
X181511904Y-105986884D01*
X181464285Y-106177360D01*
X181416666Y-106272598D01*
X181369047Y-106320217D01*
X181273809Y-106367836D01*
X181178571Y-106367836D01*
X181083333Y-106320217D01*
X181035714Y-106272598D01*
X180988095Y-106177360D01*
X180940476Y-105986884D01*
X180940476Y-105748789D01*
X180988095Y-105558313D01*
X181035714Y-105463075D01*
X181083333Y-105415456D01*
X181178571Y-105367836D01*
%TO.C,C7*%
X163307142Y-106382122D02*
X163354761Y-106429741D01*
X163402380Y-106572598D01*
X163402380Y-106667836D01*
X163354761Y-106810694D01*
X163259523Y-106905932D01*
X163164285Y-106953551D01*
X162973809Y-107001170D01*
X162830952Y-107001170D01*
X162640476Y-106953551D01*
X162545238Y-106905932D01*
X162450000Y-106810694D01*
X162402380Y-106667836D01*
X162402380Y-106572598D01*
X162450000Y-106429741D01*
X162497619Y-106382122D01*
X162402380Y-106048789D02*
X162402380Y-105382122D01*
X163402380Y-105810694D01*
%TO.C,R2*%
X204082533Y-101995838D02*
X203749200Y-101519648D01*
X203511104Y-101995838D02*
X203511104Y-100995838D01*
X203892057Y-100995838D01*
X203987295Y-101043458D01*
X204034914Y-101091077D01*
X204082533Y-101186315D01*
X204082533Y-101329172D01*
X204034914Y-101424410D01*
X203987295Y-101472029D01*
X203892057Y-101519648D01*
X203511104Y-101519648D01*
X204463485Y-101091077D02*
X204511104Y-101043458D01*
X204606342Y-100995838D01*
X204844438Y-100995838D01*
X204939676Y-101043458D01*
X204987295Y-101091077D01*
X205034914Y-101186315D01*
X205034914Y-101281553D01*
X204987295Y-101424410D01*
X204415866Y-101995838D01*
X205034914Y-101995838D01*
%TO.C,C19*%
X195107142Y-101772598D02*
X195059523Y-101820217D01*
X194916666Y-101867836D01*
X194821428Y-101867836D01*
X194678571Y-101820217D01*
X194583333Y-101724979D01*
X194535714Y-101629741D01*
X194488095Y-101439265D01*
X194488095Y-101296408D01*
X194535714Y-101105932D01*
X194583333Y-101010694D01*
X194678571Y-100915456D01*
X194821428Y-100867836D01*
X194916666Y-100867836D01*
X195059523Y-100915456D01*
X195107142Y-100963075D01*
X196059523Y-101867836D02*
X195488095Y-101867836D01*
X195773809Y-101867836D02*
X195773809Y-100867836D01*
X195678571Y-101010694D01*
X195583333Y-101105932D01*
X195488095Y-101153551D01*
X196535714Y-101867836D02*
X196726190Y-101867836D01*
X196821428Y-101820217D01*
X196869047Y-101772598D01*
X196964285Y-101629741D01*
X197011904Y-101439265D01*
X197011904Y-101058313D01*
X196964285Y-100963075D01*
X196916666Y-100915456D01*
X196821428Y-100867836D01*
X196630952Y-100867836D01*
X196535714Y-100915456D01*
X196488095Y-100963075D01*
X196440476Y-101058313D01*
X196440476Y-101296408D01*
X196488095Y-101391646D01*
X196535714Y-101439265D01*
X196630952Y-101486884D01*
X196821428Y-101486884D01*
X196916666Y-101439265D01*
X196964285Y-101391646D01*
X197011904Y-101296408D01*
%TO.C,C22*%
X189984342Y-99646315D02*
X190031961Y-99693934D01*
X190079580Y-99836791D01*
X190079580Y-99932029D01*
X190031961Y-100074886D01*
X189936723Y-100170124D01*
X189841485Y-100217743D01*
X189651009Y-100265362D01*
X189508152Y-100265362D01*
X189317676Y-100217743D01*
X189222438Y-100170124D01*
X189127200Y-100074886D01*
X189079580Y-99932029D01*
X189079580Y-99836791D01*
X189127200Y-99693934D01*
X189174819Y-99646315D01*
X189174819Y-99265362D02*
X189127200Y-99217743D01*
X189079580Y-99122505D01*
X189079580Y-98884410D01*
X189127200Y-98789172D01*
X189174819Y-98741553D01*
X189270057Y-98693934D01*
X189365295Y-98693934D01*
X189508152Y-98741553D01*
X190079580Y-99312981D01*
X190079580Y-98693934D01*
X189174819Y-98312981D02*
X189127200Y-98265362D01*
X189079580Y-98170124D01*
X189079580Y-97932029D01*
X189127200Y-97836791D01*
X189174819Y-97789172D01*
X189270057Y-97741553D01*
X189365295Y-97741553D01*
X189508152Y-97789172D01*
X190079580Y-98360600D01*
X190079580Y-97741553D01*
%TO.C,C17*%
X199807142Y-102872598D02*
X199759523Y-102920217D01*
X199616666Y-102967836D01*
X199521428Y-102967836D01*
X199378571Y-102920217D01*
X199283333Y-102824979D01*
X199235714Y-102729741D01*
X199188095Y-102539265D01*
X199188095Y-102396408D01*
X199235714Y-102205932D01*
X199283333Y-102110694D01*
X199378571Y-102015456D01*
X199521428Y-101967836D01*
X199616666Y-101967836D01*
X199759523Y-102015456D01*
X199807142Y-102063075D01*
X200759523Y-102967836D02*
X200188095Y-102967836D01*
X200473809Y-102967836D02*
X200473809Y-101967836D01*
X200378571Y-102110694D01*
X200283333Y-102205932D01*
X200188095Y-102253551D01*
X201092857Y-101967836D02*
X201759523Y-101967836D01*
X201330952Y-102967836D01*
%TO.C,R11*%
X179132380Y-113958313D02*
X178656190Y-114291646D01*
X179132380Y-114529741D02*
X178132380Y-114529741D01*
X178132380Y-114148789D01*
X178180000Y-114053551D01*
X178227619Y-114005932D01*
X178322857Y-113958313D01*
X178465714Y-113958313D01*
X178560952Y-114005932D01*
X178608571Y-114053551D01*
X178656190Y-114148789D01*
X178656190Y-114529741D01*
X179132380Y-113005932D02*
X179132380Y-113577360D01*
X179132380Y-113291646D02*
X178132380Y-113291646D01*
X178275238Y-113386884D01*
X178370476Y-113482122D01*
X178418095Y-113577360D01*
X179132380Y-112053551D02*
X179132380Y-112624979D01*
X179132380Y-112339265D02*
X178132380Y-112339265D01*
X178275238Y-112434503D01*
X178370476Y-112529741D01*
X178418095Y-112624979D01*
%TO.C,C8*%
X202778342Y-115926124D02*
X202825961Y-115973743D01*
X202873580Y-116116600D01*
X202873580Y-116211838D01*
X202825961Y-116354696D01*
X202730723Y-116449934D01*
X202635485Y-116497553D01*
X202445009Y-116545172D01*
X202302152Y-116545172D01*
X202111676Y-116497553D01*
X202016438Y-116449934D01*
X201921200Y-116354696D01*
X201873580Y-116211838D01*
X201873580Y-116116600D01*
X201921200Y-115973743D01*
X201968819Y-115926124D01*
X202302152Y-115354696D02*
X202254533Y-115449934D01*
X202206914Y-115497553D01*
X202111676Y-115545172D01*
X202064057Y-115545172D01*
X201968819Y-115497553D01*
X201921200Y-115449934D01*
X201873580Y-115354696D01*
X201873580Y-115164219D01*
X201921200Y-115068981D01*
X201968819Y-115021362D01*
X202064057Y-114973743D01*
X202111676Y-114973743D01*
X202206914Y-115021362D01*
X202254533Y-115068981D01*
X202302152Y-115164219D01*
X202302152Y-115354696D01*
X202349771Y-115449934D01*
X202397390Y-115497553D01*
X202492628Y-115545172D01*
X202683104Y-115545172D01*
X202778342Y-115497553D01*
X202825961Y-115449934D01*
X202873580Y-115354696D01*
X202873580Y-115164219D01*
X202825961Y-115068981D01*
X202778342Y-115021362D01*
X202683104Y-114973743D01*
X202492628Y-114973743D01*
X202397390Y-115021362D01*
X202349771Y-115068981D01*
X202302152Y-115164219D01*
%TO.C,C13*%
X193320342Y-110850315D02*
X193367961Y-110897934D01*
X193415580Y-111040791D01*
X193415580Y-111136029D01*
X193367961Y-111278886D01*
X193272723Y-111374124D01*
X193177485Y-111421743D01*
X192987009Y-111469362D01*
X192844152Y-111469362D01*
X192653676Y-111421743D01*
X192558438Y-111374124D01*
X192463200Y-111278886D01*
X192415580Y-111136029D01*
X192415580Y-111040791D01*
X192463200Y-110897934D01*
X192510819Y-110850315D01*
X193415580Y-109897934D02*
X193415580Y-110469362D01*
X193415580Y-110183648D02*
X192415580Y-110183648D01*
X192558438Y-110278886D01*
X192653676Y-110374124D01*
X192701295Y-110469362D01*
X192415580Y-109564600D02*
X192415580Y-108945553D01*
X192796533Y-109278886D01*
X192796533Y-109136029D01*
X192844152Y-109040791D01*
X192891771Y-108993172D01*
X192987009Y-108945553D01*
X193225104Y-108945553D01*
X193320342Y-108993172D01*
X193367961Y-109040791D01*
X193415580Y-109136029D01*
X193415580Y-109421743D01*
X193367961Y-109516981D01*
X193320342Y-109564600D01*
%TO.C,R10*%
X135757142Y-115270380D02*
X135423809Y-114794190D01*
X135185714Y-115270380D02*
X135185714Y-114270380D01*
X135566666Y-114270380D01*
X135661904Y-114318000D01*
X135709523Y-114365619D01*
X135757142Y-114460857D01*
X135757142Y-114603714D01*
X135709523Y-114698952D01*
X135661904Y-114746571D01*
X135566666Y-114794190D01*
X135185714Y-114794190D01*
X136709523Y-115270380D02*
X136138095Y-115270380D01*
X136423809Y-115270380D02*
X136423809Y-114270380D01*
X136328571Y-114413238D01*
X136233333Y-114508476D01*
X136138095Y-114556095D01*
X137328571Y-114270380D02*
X137423809Y-114270380D01*
X137519047Y-114318000D01*
X137566666Y-114365619D01*
X137614285Y-114460857D01*
X137661904Y-114651333D01*
X137661904Y-114889428D01*
X137614285Y-115079904D01*
X137566666Y-115175142D01*
X137519047Y-115222761D01*
X137423809Y-115270380D01*
X137328571Y-115270380D01*
X137233333Y-115222761D01*
X137185714Y-115175142D01*
X137138095Y-115079904D01*
X137090476Y-114889428D01*
X137090476Y-114651333D01*
X137138095Y-114460857D01*
X137185714Y-114365619D01*
X137233333Y-114318000D01*
X137328571Y-114270380D01*
%TO.C,D1*%
X214302380Y-98815551D02*
X213302380Y-98815551D01*
X213302380Y-98577456D01*
X213350000Y-98434598D01*
X213445238Y-98339360D01*
X213540476Y-98291741D01*
X213730952Y-98244122D01*
X213873809Y-98244122D01*
X214064285Y-98291741D01*
X214159523Y-98339360D01*
X214254761Y-98434598D01*
X214302380Y-98577456D01*
X214302380Y-98815551D01*
X214302380Y-97291741D02*
X214302380Y-97863170D01*
X214302380Y-97577456D02*
X213302380Y-97577456D01*
X213445238Y-97672694D01*
X213540476Y-97767932D01*
X213588095Y-97863170D01*
%TO.C,D2*%
X212211904Y-95167836D02*
X212211904Y-94167836D01*
X212450000Y-94167836D01*
X212592857Y-94215456D01*
X212688095Y-94310694D01*
X212735714Y-94405932D01*
X212783333Y-94596408D01*
X212783333Y-94739265D01*
X212735714Y-94929741D01*
X212688095Y-95024979D01*
X212592857Y-95120217D01*
X212450000Y-95167836D01*
X212211904Y-95167836D01*
X213164285Y-94263075D02*
X213211904Y-94215456D01*
X213307142Y-94167836D01*
X213545238Y-94167836D01*
X213640476Y-94215456D01*
X213688095Y-94263075D01*
X213735714Y-94358313D01*
X213735714Y-94453551D01*
X213688095Y-94596408D01*
X213116666Y-95167836D01*
X213735714Y-95167836D01*
%TO.C,X2*%
X200645676Y-105059838D02*
X201312342Y-106059838D01*
X201312342Y-105059838D02*
X200645676Y-106059838D01*
X201645676Y-105155077D02*
X201693295Y-105107458D01*
X201788533Y-105059838D01*
X202026628Y-105059838D01*
X202121866Y-105107458D01*
X202169485Y-105155077D01*
X202217104Y-105250315D01*
X202217104Y-105345553D01*
X202169485Y-105488410D01*
X201598057Y-106059838D01*
X202217104Y-106059838D01*
%TO.C,J4*%
X169416666Y-110967836D02*
X169416666Y-111682122D01*
X169369047Y-111824979D01*
X169273809Y-111920217D01*
X169130952Y-111967836D01*
X169035714Y-111967836D01*
X170321428Y-111301170D02*
X170321428Y-111967836D01*
X170083333Y-110920217D02*
X169845238Y-111634503D01*
X170464285Y-111634503D01*
D15*
%TO.C,C3*%
X216160000Y-111374876D02*
X216160000Y-111656036D01*
X215140000Y-111374876D02*
X215140000Y-111656036D01*
%TO.C,C11*%
X198487036Y-106771458D02*
X198271364Y-106771458D01*
X198487036Y-107491458D02*
X198271364Y-107491458D01*
%TO.C,C101*%
X200386948Y-101621458D02*
X200909452Y-101621458D01*
X200386948Y-100151458D02*
X200909452Y-100151458D01*
%TO.C,C26*%
X179973036Y-104485458D02*
X179757364Y-104485458D01*
X179973036Y-105205458D02*
X179757364Y-105205458D01*
%TO.C,C4*%
X211420763Y-103429458D02*
X205665200Y-103429458D01*
X205665200Y-103429458D02*
X205665200Y-101079458D01*
X212485200Y-102365021D02*
X212485200Y-101079458D01*
X212485200Y-97673895D02*
X212485200Y-98959458D01*
X211420763Y-96609458D02*
X205665200Y-96609458D01*
X213118950Y-102260708D02*
X213118950Y-101473208D01*
X213512700Y-101866958D02*
X212725200Y-101866958D01*
X212485200Y-97673895D02*
X211420763Y-96609458D01*
X212485200Y-102365021D02*
X211420763Y-103429458D01*
X205665200Y-96609458D02*
X205665200Y-98959458D01*
%TO.C,LED1*%
X75650000Y-100950000D02*
X76800000Y-100950000D01*
X75650000Y-93650000D02*
X75650000Y-100950000D01*
X81150000Y-93650000D02*
X81150000Y-100950000D01*
%TO.C,J8*%
X170320000Y-96345456D02*
X170320000Y-93685456D01*
X170320000Y-93685456D02*
X172920000Y-93685456D01*
X170320000Y-96345456D02*
X172920000Y-96345456D01*
X169050000Y-96345456D02*
X167720000Y-96345456D01*
X172920000Y-96345456D02*
X172920000Y-93685456D01*
X167720000Y-96345456D02*
X167720000Y-95015456D01*
%TO.C,R5*%
X196303641Y-105295456D02*
X195996359Y-105295456D01*
X196303641Y-104535456D02*
X195996359Y-104535456D01*
%TO.C,U4*%
X168704000Y-106259456D02*
X168704000Y-105459456D01*
X165584000Y-106259456D02*
X165584000Y-105459456D01*
X165584000Y-106259456D02*
X165584000Y-108059456D01*
X168704000Y-106259456D02*
X168704000Y-107059456D01*
D10*
%TO.C,U2*%
X150388400Y-114632400D02*
X150388400Y-109832400D01*
X149787620Y-114632380D02*
X149787620Y-114030400D01*
X143889740Y-109832420D02*
X150387060Y-109832420D01*
X143888400Y-114632400D02*
X143888400Y-109832400D01*
X143889740Y-114632380D02*
X150387060Y-114632380D01*
X149787620Y-114030400D02*
X150387060Y-114030400D01*
D15*
%TO.C,X1*%
X208461200Y-114039458D02*
X204461200Y-114039458D01*
X208461200Y-117339458D02*
X208461200Y-114039458D01*
%TO.C,D3*%
X163500000Y-108315456D02*
X163500000Y-110865456D01*
X165200000Y-108315456D02*
X165200000Y-110865456D01*
X165200000Y-108315456D02*
X163500000Y-108315456D01*
%TO.C,Q1*%
X139264400Y-108843600D02*
X137589400Y-108843600D01*
X139264400Y-108843600D02*
X139914400Y-108843600D01*
X139264400Y-111963600D02*
X139914400Y-111963600D01*
X139264400Y-111963600D02*
X138614400Y-111963600D01*
D16*
%TO.C,L1*%
X204717200Y-93455458D02*
X204537200Y-93455458D01*
X204717200Y-98455458D02*
X204537200Y-98455458D01*
X204717200Y-98455458D02*
X204717200Y-93455458D01*
X199717200Y-98455458D02*
X199897200Y-98455458D01*
X199717200Y-93455458D02*
X199897200Y-93455458D01*
X199717200Y-98455458D02*
X199717200Y-93455458D01*
D15*
%TO.C,D4*%
X115623200Y-99018115D02*
X115623200Y-96733115D01*
X114153200Y-96733115D02*
X114153200Y-99018115D01*
X114153200Y-99018115D02*
X115623200Y-99018115D01*
%TO.C,J5*%
X115095000Y-106593000D02*
X115095000Y-112593000D01*
X125255000Y-106593000D02*
X125255000Y-112593000D01*
X127795000Y-115650071D02*
X127795000Y-115253000D01*
X110905000Y-117963000D02*
X110905000Y-116693000D01*
X122715000Y-115650071D02*
X122715000Y-115253000D01*
X112215000Y-112593000D02*
X112215000Y-106593000D01*
X119415000Y-115650071D02*
X119415000Y-115253000D01*
X121955000Y-112593000D02*
X121955000Y-106593000D01*
X111975000Y-112593000D02*
X111975000Y-106593000D01*
X111855000Y-112593000D02*
X111855000Y-106593000D01*
X128745000Y-112593000D02*
X110845000Y-112593000D01*
X117635000Y-106593000D02*
X117635000Y-112593000D01*
X121955000Y-106593000D02*
X122715000Y-106593000D01*
X112455000Y-112593000D02*
X112455000Y-106593000D01*
X116875000Y-106593000D02*
X117635000Y-106593000D01*
X114335000Y-106593000D02*
X115095000Y-106593000D01*
X112175000Y-117963000D02*
X110905000Y-117963000D01*
X115095000Y-115650071D02*
X115095000Y-115253000D01*
X113445000Y-115253000D02*
X113445000Y-112593000D01*
X118525000Y-115253000D02*
X118525000Y-112593000D01*
X124495000Y-106593000D02*
X125255000Y-106593000D01*
X111795000Y-112593000D02*
X111795000Y-106593000D01*
X127795000Y-106593000D02*
X127795000Y-112593000D01*
X112095000Y-112593000D02*
X112095000Y-106593000D01*
X110845000Y-115253000D02*
X128745000Y-115253000D01*
X121955000Y-115650071D02*
X121955000Y-115253000D01*
X119415000Y-106593000D02*
X120175000Y-106593000D01*
X124495000Y-112593000D02*
X124495000Y-106593000D01*
X120175000Y-106593000D02*
X120175000Y-112593000D01*
X114335000Y-112593000D02*
X114335000Y-106593000D01*
X117635000Y-115650071D02*
X117635000Y-115253000D01*
X125255000Y-115650071D02*
X125255000Y-115253000D01*
X121065000Y-115253000D02*
X121065000Y-112593000D01*
X111795000Y-115583000D02*
X111795000Y-115253000D01*
X112555000Y-106593000D02*
X112555000Y-112593000D01*
X116875000Y-115650071D02*
X116875000Y-115253000D01*
X122715000Y-106593000D02*
X122715000Y-112593000D01*
X112555000Y-115583000D02*
X112555000Y-115253000D01*
X112335000Y-112593000D02*
X112335000Y-106593000D01*
X110845000Y-112593000D02*
X110845000Y-115253000D01*
X116875000Y-112593000D02*
X116875000Y-106593000D01*
X127035000Y-106593000D02*
X127795000Y-106593000D01*
X127035000Y-112593000D02*
X127035000Y-106593000D01*
X128745000Y-115253000D02*
X128745000Y-112593000D01*
X119415000Y-112593000D02*
X119415000Y-106593000D01*
X114335000Y-115650071D02*
X114335000Y-115253000D01*
X124495000Y-115650071D02*
X124495000Y-115253000D01*
X127035000Y-115650071D02*
X127035000Y-115253000D01*
X120175000Y-115650071D02*
X120175000Y-115253000D01*
X111795000Y-106593000D02*
X112555000Y-106593000D01*
X126145000Y-115253000D02*
X126145000Y-112593000D01*
X123605000Y-115253000D02*
X123605000Y-112593000D01*
X115985000Y-115253000D02*
X115985000Y-112593000D01*
%TO.C,R6*%
X147926164Y-107230200D02*
X147472036Y-107230200D01*
X147926164Y-108700200D02*
X147472036Y-108700200D01*
%TO.C,R4*%
X197036841Y-99383458D02*
X196729559Y-99383458D01*
X197036841Y-98623458D02*
X196729559Y-98623458D01*
%TO.C,R1*%
X214731200Y-107492520D02*
X214731200Y-103138392D01*
X218151200Y-107492520D02*
X218151200Y-103138392D01*
%TO.C,C12*%
X187591200Y-110833622D02*
X187591200Y-111049294D01*
X186871200Y-110833622D02*
X186871200Y-111049294D01*
%TO.C,C6*%
X211596236Y-113439856D02*
X211380564Y-113439856D01*
X211596236Y-114159856D02*
X211380564Y-114159856D01*
%TO.C,R7*%
X139745464Y-108344600D02*
X139291336Y-108344600D01*
X139745464Y-106874600D02*
X139291336Y-106874600D01*
%TO.C,C24*%
X183783036Y-99405458D02*
X183567364Y-99405458D01*
X183783036Y-100125458D02*
X183567364Y-100125458D01*
%TO.C,R12*%
X183521559Y-104209458D02*
X183828841Y-104209458D01*
X183521559Y-103449458D02*
X183828841Y-103449458D01*
%TO.C,J7*%
X197780000Y-115224458D02*
X182480000Y-115224458D01*
X182480000Y-115224458D02*
X182480000Y-117884458D01*
X200380000Y-116554458D02*
X200380000Y-117884458D01*
X200380000Y-117884458D02*
X199050000Y-117884458D01*
X197780000Y-117884458D02*
X182480000Y-117884458D01*
X197780000Y-115224458D02*
X197780000Y-117884458D01*
%TO.C,R13*%
X183521559Y-103193458D02*
X183828841Y-103193458D01*
X183521559Y-102433458D02*
X183828841Y-102433458D01*
%TO.C,C23*%
X183783036Y-100421458D02*
X183567364Y-100421458D01*
X183783036Y-101141458D02*
X183567364Y-101141458D01*
%TO.C,C5*%
X203847200Y-112065294D02*
X203847200Y-111849622D01*
X203127200Y-112065294D02*
X203127200Y-111849622D01*
%TO.C,C21*%
X165506580Y-103721456D02*
X165225420Y-103721456D01*
X165506580Y-102701456D02*
X165225420Y-102701456D01*
%TO.C,C25*%
X197842164Y-101875456D02*
X198057836Y-101875456D01*
X197842164Y-101155456D02*
X198057836Y-101155456D01*
%TO.C,C1*%
X213640000Y-110674876D02*
X213640000Y-110956036D01*
X214660000Y-110674876D02*
X214660000Y-110956036D01*
%TO.C,J2*%
X81500000Y-116793000D02*
X75600000Y-116793000D01*
X85600000Y-111043000D02*
X75600000Y-111043000D01*
X75600000Y-116793000D02*
X75600000Y-111043000D01*
X80700000Y-106393000D02*
X81500000Y-105293000D01*
X83700000Y-105293000D02*
X84500000Y-106393000D01*
X83700000Y-116793000D02*
X84500000Y-117943000D01*
X85600000Y-105293000D02*
X85600000Y-106293000D01*
X85600000Y-116793000D02*
X83700000Y-116793000D01*
X84500000Y-106393000D02*
X80700000Y-106393000D01*
X84500000Y-117943000D02*
X80700000Y-117943000D01*
X85600000Y-105293000D02*
X85600000Y-111043000D01*
X85600000Y-105293000D02*
X85600000Y-116793000D01*
X80700000Y-117943000D02*
X81500000Y-116793000D01*
X85600000Y-105293000D02*
X85600000Y-111043000D01*
X85600000Y-105293000D02*
X83700000Y-105293000D01*
X75600000Y-110993000D02*
X75600000Y-105293000D01*
X81500000Y-105293000D02*
X75600000Y-105293000D01*
%TO.C,U5*%
X186161200Y-100981458D02*
X186811200Y-100981458D01*
X193381200Y-101631458D02*
X193381200Y-100981458D01*
X193381200Y-107551458D02*
X193381200Y-108201458D01*
X186161200Y-101631458D02*
X186161200Y-100981458D01*
X193381200Y-108201458D02*
X192731200Y-108201458D01*
X193381200Y-100981458D02*
X192731200Y-100981458D01*
X186161200Y-107551458D02*
X186161200Y-108201458D01*
%TO.C,R8*%
X186103641Y-113035456D02*
X185796359Y-113035456D01*
X186103641Y-113795456D02*
X185796359Y-113795456D01*
D17*
%TO.C,IC1*%
X180200000Y-111990456D02*
G75*
G03*
X180200000Y-111990456I-125000J0D01*
G01*
D15*
%TO.C,C41*%
X208426620Y-104081458D02*
X208707780Y-104081458D01*
X208426620Y-105101458D02*
X208707780Y-105101458D01*
%TO.C,C10*%
X205110620Y-104879458D02*
X205391780Y-104879458D01*
X205110620Y-103859458D02*
X205391780Y-103859458D01*
%TO.C,R9*%
X115232841Y-94103115D02*
X114925559Y-94103115D01*
X115232841Y-93343115D02*
X114925559Y-93343115D01*
%TO.C,C9*%
X210046200Y-115836622D02*
X210046200Y-116052294D01*
X209326200Y-115836622D02*
X209326200Y-116052294D01*
%TO.C,C18*%
X183783036Y-102157458D02*
X183567364Y-102157458D01*
X183783036Y-101437458D02*
X183567364Y-101437458D01*
%TO.C,U1*%
X205016200Y-112594458D02*
X205016200Y-112119458D01*
X210761200Y-112594458D02*
X211236200Y-112594458D01*
X210761200Y-106374458D02*
X211236200Y-106374458D01*
X205491200Y-112594458D02*
X205016200Y-112594458D01*
X205016200Y-106374458D02*
X205016200Y-106849458D01*
X211236200Y-106374458D02*
X211236200Y-106849458D01*
X205491200Y-106374458D02*
X205016200Y-106374458D01*
%TO.C,J1*%
X175510000Y-93070000D02*
X176840000Y-93070000D01*
X178110000Y-93070000D02*
X198490000Y-93070000D01*
X178110000Y-95730000D02*
X198490000Y-95730000D01*
X175510000Y-94400000D02*
X175510000Y-93070000D01*
X178110000Y-95730000D02*
X178110000Y-93070000D01*
X198490000Y-95730000D02*
X198490000Y-93070000D01*
%TO.C,R3*%
X166228359Y-108673456D02*
X166535641Y-108673456D01*
X166228359Y-109433456D02*
X166535641Y-109433456D01*
%TO.C,C2*%
X213760000Y-107756036D02*
X213760000Y-107474876D01*
X212740000Y-107756036D02*
X212740000Y-107474876D01*
%TO.C,D6*%
X175850000Y-116165456D02*
X178400000Y-116165456D01*
X175850000Y-114465456D02*
X178400000Y-114465456D01*
X175850000Y-114465456D02*
X175850000Y-116165456D01*
%TO.C,C20*%
X182551364Y-105501458D02*
X182767036Y-105501458D01*
X182551364Y-106221458D02*
X182767036Y-106221458D01*
%TO.C,C7*%
X163840000Y-105892036D02*
X163840000Y-105610876D01*
X164860000Y-105892036D02*
X164860000Y-105610876D01*
%TO.C,R2*%
X204027559Y-102429458D02*
X204334841Y-102429458D01*
X204027559Y-103189458D02*
X204334841Y-103189458D01*
%TO.C,C19*%
X196157836Y-100775456D02*
X195942164Y-100775456D01*
X196157836Y-100055456D02*
X195942164Y-100055456D01*
%TO.C,C22*%
X191147200Y-99111294D02*
X191147200Y-98895622D01*
X190427200Y-99111294D02*
X190427200Y-98895622D01*
%TO.C,C17*%
X198261036Y-102199458D02*
X198045364Y-102199458D01*
X198261036Y-102919458D02*
X198045364Y-102919458D01*
%TO.C,R11*%
X180230000Y-113469097D02*
X180230000Y-113161815D01*
X179470000Y-113469097D02*
X179470000Y-113161815D01*
%TO.C,C8*%
X203941200Y-115867294D02*
X203941200Y-115651622D01*
X203221200Y-115867294D02*
X203221200Y-115651622D01*
%TO.C,C13*%
X192163200Y-110099622D02*
X192163200Y-110315294D01*
X191443200Y-110099622D02*
X191443200Y-110315294D01*
%TO.C,R10*%
X139291336Y-114288200D02*
X139745464Y-114288200D01*
X139291336Y-112818200D02*
X139745464Y-112818200D01*
%TO.C,D1*%
X214700000Y-100715456D02*
X218000000Y-100715456D01*
X214700000Y-100715456D02*
X214700000Y-95315456D01*
X218000000Y-100715456D02*
X218000000Y-95315456D01*
%TO.C,D2*%
X205167200Y-92781458D02*
X205167200Y-96081458D01*
X205167200Y-96081458D02*
X210567200Y-96081458D01*
X205167200Y-92781458D02*
X210567200Y-92781458D01*
%TO.C,X2*%
X197265200Y-103699458D02*
X197265200Y-106499458D01*
X197265200Y-106499458D02*
X200565200Y-106499458D01*
%TO.C,J4*%
X171750000Y-114902956D02*
X171750000Y-113052956D01*
X171750000Y-117452956D02*
X171750000Y-117202956D01*
X171750000Y-113052956D02*
X171300000Y-113052956D01*
X163950000Y-117452956D02*
X163950000Y-117202956D01*
X163950000Y-113052956D02*
X164400000Y-113052956D01*
X166150000Y-112502956D02*
X166600000Y-112502956D01*
X163950000Y-114902956D02*
X163950000Y-113052956D01*
X166150000Y-112502956D02*
X166150000Y-112952956D01*
%TD*%
%LPC*%
D18*
%TO.C,C3*%
X215650000Y-112290456D03*
X215650000Y-110740456D03*
%TD*%
D19*
%TO.C,C11*%
X197899200Y-107131458D03*
X198859200Y-107131458D03*
%TD*%
D20*
%TO.C,C101*%
X201598200Y-100886458D03*
X199698200Y-100886458D03*
%TD*%
D19*
%TO.C,C26*%
X179385200Y-104845458D03*
X180345200Y-104845458D03*
%TD*%
D21*
%TO.C,C4*%
X206375200Y-100019458D03*
X211775200Y-100019458D03*
%TD*%
D22*
%TO.C,LED1*%
X80050000Y-99750000D03*
X76750000Y-99750000D03*
X76750000Y-94850000D03*
X80050000Y-94850000D03*
%TD*%
D23*
%TO.C,J8*%
X171590000Y-95015456D03*
D24*
X169050000Y-95015456D03*
%TD*%
D25*
%TO.C,R5*%
X195640000Y-104915456D03*
X196660000Y-104915456D03*
%TD*%
D26*
%TO.C,U4*%
X166194000Y-105121956D03*
X168094000Y-105121956D03*
X168094000Y-107396956D03*
X167144000Y-107396956D03*
X166194000Y-107396956D03*
%TD*%
D27*
%TO.C,U2*%
X142638400Y-113502400D03*
X142638400Y-110962400D03*
X151636740Y-110962400D03*
X151636740Y-113502400D03*
%TD*%
D28*
%TO.C,X1*%
X207561200Y-116539458D03*
X205361200Y-116539458D03*
X205361200Y-114839458D03*
X207561200Y-114839458D03*
%TD*%
D29*
%TO.C,D3*%
X164350000Y-110865456D03*
X164350000Y-108765456D03*
%TD*%
D30*
%TO.C,Q1*%
X140201900Y-110403600D03*
X138326900Y-111353600D03*
X138326900Y-109453600D03*
%TD*%
D31*
%TO.C,L1*%
X202217200Y-94155458D03*
X202217200Y-97755458D03*
%TD*%
D32*
%TO.C,D4*%
X114888200Y-96745615D03*
X114888200Y-98320615D03*
%TD*%
D33*
%TO.C,SW3*%
X177350000Y-106163458D03*
X177350000Y-112163458D03*
X173350000Y-106163458D03*
X173350000Y-112163458D03*
%TD*%
D23*
%TO.C,J5*%
X127415000Y-116693000D03*
X124875000Y-116693000D03*
X122335000Y-116693000D03*
X119795000Y-116693000D03*
X117255000Y-116693000D03*
X114715000Y-116693000D03*
D24*
X112175000Y-116693000D03*
%TD*%
D34*
%TO.C,R6*%
X146786600Y-107965200D03*
X148611600Y-107965200D03*
%TD*%
D25*
%TO.C,R4*%
X196373200Y-99003458D03*
X197393200Y-99003458D03*
%TD*%
D35*
%TO.C,R1*%
X216441200Y-102352956D03*
X216441200Y-108277956D03*
%TD*%
D36*
%TO.C,C12*%
X187231200Y-111421458D03*
X187231200Y-110461458D03*
%TD*%
D19*
%TO.C,C6*%
X211008400Y-113799856D03*
X211968400Y-113799856D03*
%TD*%
D34*
%TO.C,R7*%
X138605900Y-107609600D03*
X140430900Y-107609600D03*
%TD*%
D19*
%TO.C,C24*%
X183195200Y-99765458D03*
X184155200Y-99765458D03*
%TD*%
D37*
%TO.C,R12*%
X183165200Y-103829458D03*
X184185200Y-103829458D03*
%TD*%
D33*
%TO.C,SW1*%
X86211200Y-94407313D03*
X86211200Y-100407313D03*
X82211200Y-94407313D03*
X82211200Y-100407313D03*
%TD*%
D23*
%TO.C,J7*%
X183810000Y-116554458D03*
X186350000Y-116554458D03*
X188890000Y-116554458D03*
X191430000Y-116554458D03*
X193970000Y-116554458D03*
X196510000Y-116554458D03*
D24*
X199050000Y-116554458D03*
%TD*%
D37*
%TO.C,R13*%
X183165200Y-102813458D03*
X184185200Y-102813458D03*
%TD*%
D19*
%TO.C,C23*%
X183195200Y-100781458D03*
X184155200Y-100781458D03*
%TD*%
D38*
%TO.C,C5*%
X203487200Y-111477458D03*
X203487200Y-112437458D03*
%TD*%
D39*
%TO.C,C21*%
X164591000Y-103211456D03*
X166141000Y-103211456D03*
%TD*%
D40*
%TO.C,C25*%
X198430000Y-101515456D03*
X197470000Y-101515456D03*
%TD*%
D18*
%TO.C,C1*%
X214150000Y-111590456D03*
X214150000Y-110040456D03*
%TD*%
D41*
%TO.C,J2*%
X82200000Y-107843000D03*
X82200000Y-113593000D03*
%TD*%
D42*
%TO.C,J3*%
X157400000Y-108858000D03*
D43*
X157400000Y-113858000D03*
%TD*%
D44*
%TO.C,U5*%
X189771200Y-104591458D03*
D45*
X186333700Y-107191458D03*
X186333700Y-106791458D03*
X186333700Y-106391458D03*
X186333700Y-105991458D03*
X186333700Y-105591458D03*
X186333700Y-105191458D03*
X186333700Y-104791458D03*
X186333700Y-104391458D03*
X186333700Y-103991458D03*
X186333700Y-103591458D03*
X186333700Y-103191458D03*
X186333700Y-102791458D03*
X186333700Y-102391458D03*
X186333700Y-101991458D03*
D46*
X187171200Y-101153958D03*
X187571200Y-101153958D03*
X187971200Y-101153958D03*
X188371200Y-101153958D03*
X188771200Y-101153958D03*
X189171200Y-101153958D03*
X189571200Y-101153958D03*
X189971200Y-101153958D03*
X190371200Y-101153958D03*
X190771200Y-101153958D03*
X191171200Y-101153958D03*
X191571200Y-101153958D03*
X191971200Y-101153958D03*
X192371200Y-101153958D03*
D45*
X193208700Y-101991458D03*
X193208700Y-102391458D03*
X193208700Y-102791458D03*
X193208700Y-103191458D03*
X193208700Y-103591458D03*
X193208700Y-103991458D03*
X193208700Y-104391458D03*
X193208700Y-104791458D03*
X193208700Y-105191458D03*
X193208700Y-105591458D03*
X193208700Y-105991458D03*
X193208700Y-106391458D03*
X193208700Y-106791458D03*
X193208700Y-107191458D03*
D46*
X192371200Y-108028958D03*
X191971200Y-108028958D03*
X191571200Y-108028958D03*
X191171200Y-108028958D03*
X190771200Y-108028958D03*
X190371200Y-108028958D03*
X189971200Y-108028958D03*
X189571200Y-108028958D03*
X189171200Y-108028958D03*
X188771200Y-108028958D03*
X188371200Y-108028958D03*
X187971200Y-108028958D03*
X187571200Y-108028958D03*
X187171200Y-108028958D03*
%TD*%
D25*
%TO.C,R8*%
X185440000Y-113415456D03*
X186460000Y-113415456D03*
%TD*%
D47*
%TO.C,IC1*%
X181950000Y-109615456D03*
D48*
X180750000Y-107665456D03*
X181550000Y-107665456D03*
X182350000Y-107665456D03*
X183150000Y-107665456D03*
X183150000Y-111565456D03*
X182350000Y-111565456D03*
X181550000Y-111565456D03*
X180750000Y-111565456D03*
%TD*%
D49*
%TO.C,C41*%
X209342200Y-104591458D03*
X207792200Y-104591458D03*
%TD*%
%TO.C,C10*%
X206026200Y-104369458D03*
X204476200Y-104369458D03*
%TD*%
D25*
%TO.C,R9*%
X114569200Y-93723115D03*
X115589200Y-93723115D03*
%TD*%
D36*
%TO.C,C9*%
X209686200Y-116424458D03*
X209686200Y-115464458D03*
%TD*%
D19*
%TO.C,C18*%
X183195200Y-101797458D03*
X184155200Y-101797458D03*
%TD*%
D50*
%TO.C,U1*%
X208126200Y-109484458D03*
D51*
X210376200Y-112421958D03*
X209876200Y-112421958D03*
X209376200Y-112421958D03*
X208876200Y-112421958D03*
X208376200Y-112421958D03*
X207876200Y-112421958D03*
X207376200Y-112421958D03*
X206876200Y-112421958D03*
X206376200Y-112421958D03*
X205876200Y-112421958D03*
D52*
X205188700Y-111734458D03*
X205188700Y-111234458D03*
X205188700Y-110734458D03*
X205188700Y-110234458D03*
X205188700Y-109734458D03*
X205188700Y-109234458D03*
X205188700Y-108734458D03*
X205188700Y-108234458D03*
X205188700Y-107734458D03*
X205188700Y-107234458D03*
D51*
X205876200Y-106546958D03*
X206376200Y-106546958D03*
X206876200Y-106546958D03*
X207376200Y-106546958D03*
X207876200Y-106546958D03*
X208376200Y-106546958D03*
X208876200Y-106546958D03*
X209376200Y-106546958D03*
X209876200Y-106546958D03*
X210376200Y-106546958D03*
D52*
X211063700Y-107234458D03*
X211063700Y-107734458D03*
X211063700Y-108234458D03*
X211063700Y-108734458D03*
X211063700Y-109234458D03*
X211063700Y-109734458D03*
X211063700Y-110234458D03*
X211063700Y-110734458D03*
X211063700Y-111234458D03*
X211063700Y-111734458D03*
%TD*%
D23*
%TO.C,J1*%
X197160000Y-94400000D03*
X194620000Y-94400000D03*
X192080000Y-94400000D03*
X189540000Y-94400000D03*
X187000000Y-94400000D03*
X184460000Y-94400000D03*
X181920000Y-94400000D03*
X179380000Y-94400000D03*
D24*
X176840000Y-94400000D03*
%TD*%
D33*
%TO.C,SW2*%
X112316200Y-94533115D03*
X112316200Y-100533115D03*
X108316200Y-94533115D03*
X108316200Y-100533115D03*
%TD*%
D37*
%TO.C,R3*%
X166892000Y-109053456D03*
X165872000Y-109053456D03*
%TD*%
D53*
%TO.C,C2*%
X213250000Y-106840456D03*
X213250000Y-108390456D03*
%TD*%
D54*
%TO.C,D6*%
X178400000Y-115315456D03*
X176300000Y-115315456D03*
%TD*%
D40*
%TO.C,C20*%
X183139200Y-105861458D03*
X182179200Y-105861458D03*
%TD*%
D53*
%TO.C,C7*%
X164350000Y-104976456D03*
X164350000Y-106526456D03*
%TD*%
D37*
%TO.C,R2*%
X204691200Y-102809458D03*
X203671200Y-102809458D03*
%TD*%
D19*
%TO.C,C19*%
X195570000Y-100415456D03*
X196530000Y-100415456D03*
%TD*%
D38*
%TO.C,C22*%
X190787200Y-98523458D03*
X190787200Y-99483458D03*
%TD*%
D19*
%TO.C,C17*%
X197673200Y-102559458D03*
X198633200Y-102559458D03*
%TD*%
D55*
%TO.C,R11*%
X179850000Y-112805456D03*
X179850000Y-113825456D03*
%TD*%
D38*
%TO.C,C8*%
X203581200Y-115279458D03*
X203581200Y-116239458D03*
%TD*%
D36*
%TO.C,C13*%
X191803200Y-110687458D03*
X191803200Y-109727458D03*
%TD*%
D56*
%TO.C,R10*%
X140430900Y-113553200D03*
X138605900Y-113553200D03*
%TD*%
D57*
%TO.C,D1*%
X216350000Y-95315456D03*
X216350000Y-99315456D03*
%TD*%
D58*
%TO.C,D2*%
X210567200Y-94431458D03*
X206567200Y-94431458D03*
%TD*%
D59*
%TO.C,X2*%
X198040200Y-104399458D03*
X199790200Y-104399458D03*
X199790200Y-105799458D03*
X198040200Y-105799458D03*
%TD*%
D60*
%TO.C,J4*%
X165350000Y-113352956D03*
D61*
X166850000Y-116052956D03*
D62*
X171350000Y-116052956D03*
D60*
X170350000Y-113352956D03*
D61*
X168850000Y-116052956D03*
D63*
X164950000Y-116052956D03*
D62*
X164350000Y-116052956D03*
D63*
X170750000Y-116052956D03*
D64*
X169150000Y-113352956D03*
X168500000Y-113352956D03*
X167850000Y-113352956D03*
X167200000Y-113352956D03*
X166550000Y-113352956D03*
%TD*%
D23*
%TO.C,J6*%
X104365000Y-93821113D03*
X101825000Y-93821113D03*
X99285000Y-93821113D03*
X96745000Y-93821113D03*
X94205000Y-93821113D03*
X91665000Y-93821113D03*
D24*
X89125000Y-93821113D03*
%TD*%
M02*
