M48
; DRILL file {KiCad (6.0.8-1)-1} date Monday, 21 November 2022 at 09:11:56
; FORMAT={-:-/ absolute / inch / decimal}
; #@! TF.CreationDate,2022-11-21T09:11:56+01:00
; #@! TF.GenerationSoftware,Kicad,Pcbnew,(6.0.8-1)-1
; #@! TF.FileFunction,Plated,1,2,PTH
FMAT,2
INCH
; #@! TA.AperFunction,Plated,PTH,ViaDrill
T1C0.0157
; #@! TA.AperFunction,Plated,PTH,ComponentDrill
T2C0.0236
; #@! TA.AperFunction,Plated,PTH,ComponentDrill
T3C0.0335
; #@! TA.AperFunction,Plated,PTH,ComponentDrill
T4C0.0394
; #@! TA.AperFunction,Plated,PTH,ComponentDrill
T5C0.0472
; #@! TA.AperFunction,Plated,PTH,ComponentDrill
T6C0.0520
%
G90
G05
T1
X3.311Y-3.9567
X4.315Y-3.7205
X4.315Y-3.9567
X6.4193Y-4.1305
X6.4311Y-4.0636
X6.687Y-4.1423
X7.0113Y-4.1278
X7.1313Y-4.1678
X7.1713Y-3.9278
X7.1713Y-3.9678
X7.1713Y-4.0078
X7.2313Y-3.8878
X7.2313Y-4.1278
X7.2642Y-4.3578
X7.3907Y-4.4386
X7.439Y-4.1463
X7.4429Y-4.099
X7.502Y-4.0872
X7.5113Y-4.1478
X7.5138Y-3.7959
X7.5531Y-4.3982
X7.6033Y-3.9071
X7.6251Y-4.3274
X7.6792Y-4.0597
X7.6822Y-4.0006
X7.7712Y-3.9379
X7.7754Y-4.3414
X7.8399Y-4.3292
X7.8613Y-4.0378
X7.8713Y-4.2178
X7.9262Y-4.4425
X7.9291Y-3.7565
X7.9413Y-4.0478
X7.9833Y-4.4407
X7.9902Y-3.973
X8.0121Y-4.2809
X8.0128Y-4.1478
X8.0861Y-4.4678
X8.1111Y-4.0685
X8.1413Y-4.2478
X8.1413Y-4.3078
X8.1413Y-4.3678
X8.1821Y-3.8677
X8.1913Y-4.2478
X8.1913Y-4.3078
X8.1913Y-4.3678
X8.2146Y-4.4678
X8.2413Y-4.2478
X8.2413Y-4.3078
X8.2413Y-4.3678
X8.2669Y-4.511
X8.2811Y-4.1537
X8.2918Y-4.1159
X8.3012Y-4.5449
X8.3327Y-4.5095
X8.4941Y-4.477
T3
X6.5098Y-4.4627
X6.7067Y-4.4627
T4
X3.5089Y-3.6937
X3.6089Y-3.6937
X3.7089Y-3.6937
X3.8089Y-3.6937
X3.9089Y-3.6937
X4.0089Y-3.6937
X4.1089Y-3.6937
X4.4163Y-4.5942
X4.5163Y-4.5942
X4.6163Y-4.5942
X4.7163Y-4.5942
X4.8163Y-4.5942
X4.9163Y-4.5942
X5.0163Y-4.5942
X6.6555Y-3.7408
X6.7555Y-3.7408
X6.9622Y-3.7165
X7.0622Y-3.7165
X7.1622Y-3.7165
X7.2366Y-4.5888
X7.2622Y-3.7165
X7.3366Y-4.5888
X7.3622Y-3.7165
X7.4366Y-4.5888
X7.4622Y-3.7165
X7.5366Y-4.5888
X7.5622Y-3.7165
X7.6366Y-4.5888
X7.6622Y-3.7165
X7.7366Y-4.5888
X7.7622Y-3.7165
X7.8366Y-4.5888
T5
X3.2362Y-4.2458
X3.2362Y-4.4722
T6
X6.1969Y-4.2857
X6.1969Y-4.4826
T2
G00X6.4705Y-4.5828
M15
G01X6.4705Y-4.5552
M16
G05
G00X6.7461Y-4.5552
M15
G01X6.7461Y-4.5828
M16
G05
T0
M30
