%TF.GenerationSoftware,KiCad,Pcbnew,(6.0.8-1)-1*%
%TF.CreationDate,2022-11-21T09:11:56+01:00*%
%TF.ProjectId,KNXCurrent,4b4e5843-7572-4726-956e-742e6b696361,rev?*%
%TF.SameCoordinates,Original*%
%TF.FileFunction,Legend,Bot*%
%TF.FilePolarity,Positive*%
%FSLAX46Y46*%
G04 Gerber Fmt 4.6, Leading zero omitted, Abs format (unit mm)*
G04 Created by KiCad (PCBNEW (6.0.8-1)-1) date 2022-11-21 09:11:56*
%MOMM*%
%LPD*%
G01*
G04 APERTURE LIST*
G04 Aperture macros list*
%AMFreePoly0*
4,1,20,0.000000,0.744959,0.073905,0.744508,0.209726,0.703889,0.328688,0.626782,0.421226,0.519385,0.479903,0.390333,0.500000,0.250000,0.500000,-0.250000,0.499851,-0.262216,0.476331,-0.402017,0.414519,-0.529596,0.319384,-0.634700,0.198574,-0.708877,0.061801,-0.746166,0.000000,-0.745033,0.000000,-0.750000,-0.550000,-0.750000,-0.550000,0.750000,0.000000,0.750000,0.000000,0.744959,
0.000000,0.744959,$1*%
%AMFreePoly1*
4,1,22,0.550000,-0.750000,0.000000,-0.750000,0.000000,-0.745033,-0.079941,-0.743568,-0.215256,-0.701293,-0.333266,-0.622738,-0.424486,-0.514219,-0.481581,-0.384460,-0.499164,-0.250000,-0.500000,-0.250000,-0.500000,0.250000,-0.499164,0.250000,-0.499963,0.256109,-0.478152,0.396186,-0.417904,0.524511,-0.324060,0.630769,-0.204165,0.706417,-0.067858,0.745374,0.000000,0.744959,0.000000,0.750000,
0.550000,0.750000,0.550000,-0.750000,0.550000,-0.750000,$1*%
%AMFreePoly2*
4,1,20,0.000000,0.744959,0.073905,0.744508,0.209726,0.703889,0.328688,0.626782,0.421226,0.519385,0.479903,0.390333,0.500000,0.250000,0.500000,-0.250000,0.499851,-0.262216,0.476331,-0.402017,0.414519,-0.529596,0.319384,-0.634700,0.198574,-0.708877,0.061801,-0.746166,0.000000,-0.745033,0.000000,-0.750000,-0.500000,-0.750000,-0.500000,0.750000,0.000000,0.750000,0.000000,0.744959,
0.000000,0.744959,$1*%
%AMFreePoly3*
4,1,22,0.500000,-0.750000,0.000000,-0.750000,0.000000,-0.745033,-0.079941,-0.743568,-0.215256,-0.701293,-0.333266,-0.622738,-0.424486,-0.514219,-0.481581,-0.384460,-0.499164,-0.250000,-0.500000,-0.250000,-0.500000,0.250000,-0.499164,0.250000,-0.499963,0.256109,-0.478152,0.396186,-0.417904,0.524511,-0.324060,0.630769,-0.204165,0.706417,-0.067858,0.745374,0.000000,0.744959,0.000000,0.750000,
0.500000,0.750000,0.500000,-0.750000,0.500000,-0.750000,$1*%
G04 Aperture macros list end*
%ADD10C,0.150000*%
%ADD11C,0.120000*%
%ADD12O,1.700000X1.700000*%
%ADD13R,1.700000X1.700000*%
%ADD14C,2.500000*%
%ADD15O,3.960000X1.980000*%
%ADD16R,3.960000X1.980000*%
%ADD17C,1.450000*%
%ADD18O,1.200000X1.900000*%
%ADD19FreePoly0,270.000000*%
%ADD20R,1.500000X1.000000*%
%ADD21FreePoly1,270.000000*%
%ADD22FreePoly2,90.000000*%
%ADD23FreePoly3,90.000000*%
G04 APERTURE END LIST*
D10*
X183200000Y-112838095D02*
X183152380Y-112742857D01*
X183152380Y-112600000D01*
X183200000Y-112457142D01*
X183295238Y-112361904D01*
X183390476Y-112314285D01*
X183580952Y-112266666D01*
X183723809Y-112266666D01*
X183914285Y-112314285D01*
X184009523Y-112361904D01*
X184104761Y-112457142D01*
X184152380Y-112600000D01*
X184152380Y-112695238D01*
X184104761Y-112838095D01*
X184057142Y-112885714D01*
X183723809Y-112885714D01*
X183723809Y-112695238D01*
X184152380Y-113314285D02*
X183152380Y-113314285D01*
X184152380Y-113885714D01*
X183152380Y-113885714D01*
X184152380Y-114361904D02*
X183152380Y-114361904D01*
X183152380Y-114600000D01*
X183200000Y-114742857D01*
X183295238Y-114838095D01*
X183390476Y-114885714D01*
X183580952Y-114933333D01*
X183723809Y-114933333D01*
X183914285Y-114885714D01*
X184009523Y-114838095D01*
X184104761Y-114742857D01*
X184152380Y-114600000D01*
X184152380Y-114361904D01*
X186852380Y-111547619D02*
X186376190Y-111214285D01*
X186852380Y-110976190D02*
X185852380Y-110976190D01*
X185852380Y-111357142D01*
X185900000Y-111452380D01*
X185947619Y-111500000D01*
X186042857Y-111547619D01*
X186185714Y-111547619D01*
X186280952Y-111500000D01*
X186328571Y-111452380D01*
X186376190Y-111357142D01*
X186376190Y-110976190D01*
X186328571Y-111976190D02*
X186328571Y-112309523D01*
X186852380Y-112452380D02*
X186852380Y-111976190D01*
X185852380Y-111976190D01*
X185852380Y-112452380D01*
X186804761Y-112833333D02*
X186852380Y-112976190D01*
X186852380Y-113214285D01*
X186804761Y-113309523D01*
X186757142Y-113357142D01*
X186661904Y-113404761D01*
X186566666Y-113404761D01*
X186471428Y-113357142D01*
X186423809Y-113309523D01*
X186376190Y-113214285D01*
X186328571Y-113023809D01*
X186280952Y-112928571D01*
X186233333Y-112880952D01*
X186138095Y-112833333D01*
X186042857Y-112833333D01*
X185947619Y-112880952D01*
X185900000Y-112928571D01*
X185852380Y-113023809D01*
X185852380Y-113261904D01*
X185900000Y-113404761D01*
X186328571Y-113833333D02*
X186328571Y-114166666D01*
X186852380Y-114309523D02*
X186852380Y-113833333D01*
X185852380Y-113833333D01*
X185852380Y-114309523D01*
X185852380Y-114595238D02*
X185852380Y-115166666D01*
X186852380Y-114880952D02*
X185852380Y-114880952D01*
X189071428Y-111438095D02*
X189071428Y-112200000D01*
X189452380Y-111819047D02*
X188690476Y-111819047D01*
X188452380Y-112580952D02*
X188452380Y-113200000D01*
X188833333Y-112866666D01*
X188833333Y-113009523D01*
X188880952Y-113104761D01*
X188928571Y-113152380D01*
X189023809Y-113200000D01*
X189261904Y-113200000D01*
X189357142Y-113152380D01*
X189404761Y-113104761D01*
X189452380Y-113009523D01*
X189452380Y-112723809D01*
X189404761Y-112628571D01*
X189357142Y-112580952D01*
X188452380Y-113485714D02*
X189452380Y-113819047D01*
X188452380Y-114152380D01*
X188452380Y-114390476D02*
X188452380Y-115009523D01*
X188833333Y-114676190D01*
X188833333Y-114819047D01*
X188880952Y-114914285D01*
X188928571Y-114961904D01*
X189023809Y-115009523D01*
X189261904Y-115009523D01*
X189357142Y-114961904D01*
X189404761Y-114914285D01*
X189452380Y-114819047D01*
X189452380Y-114533333D01*
X189404761Y-114438095D01*
X189357142Y-114390476D01*
X192052380Y-108585714D02*
X191052380Y-108585714D01*
X192052380Y-109157142D01*
X191052380Y-109157142D01*
X191528571Y-109633333D02*
X191528571Y-109966666D01*
X192052380Y-110109523D02*
X192052380Y-109633333D01*
X191052380Y-109633333D01*
X191052380Y-110109523D01*
X191052380Y-110728571D02*
X191052380Y-110919047D01*
X191100000Y-111014285D01*
X191195238Y-111109523D01*
X191385714Y-111157142D01*
X191719047Y-111157142D01*
X191909523Y-111109523D01*
X192004761Y-111014285D01*
X192052380Y-110919047D01*
X192052380Y-110728571D01*
X192004761Y-110633333D01*
X191909523Y-110538095D01*
X191719047Y-110490476D01*
X191385714Y-110490476D01*
X191195238Y-110538095D01*
X191100000Y-110633333D01*
X191052380Y-110728571D01*
X192052380Y-112347619D02*
X191052380Y-112347619D01*
X191052380Y-112728571D01*
X191100000Y-112823809D01*
X191147619Y-112871428D01*
X191242857Y-112919047D01*
X191385714Y-112919047D01*
X191480952Y-112871428D01*
X191528571Y-112823809D01*
X191576190Y-112728571D01*
X191576190Y-112347619D01*
X191052380Y-113252380D02*
X192052380Y-113490476D01*
X191338095Y-113680952D01*
X192052380Y-113871428D01*
X191052380Y-114109523D01*
X192052380Y-115061904D02*
X191576190Y-114728571D01*
X192052380Y-114490476D02*
X191052380Y-114490476D01*
X191052380Y-114871428D01*
X191100000Y-114966666D01*
X191147619Y-115014285D01*
X191242857Y-115061904D01*
X191385714Y-115061904D01*
X191480952Y-115014285D01*
X191528571Y-114966666D01*
X191576190Y-114871428D01*
X191576190Y-114490476D01*
X194452380Y-109142857D02*
X193452380Y-109142857D01*
X194452380Y-109714285D01*
X193452380Y-109714285D01*
X193928571Y-110190476D02*
X193928571Y-110523809D01*
X194452380Y-110666666D02*
X194452380Y-110190476D01*
X193452380Y-110190476D01*
X193452380Y-110666666D01*
X193452380Y-111285714D02*
X193452380Y-111476190D01*
X193500000Y-111571428D01*
X193595238Y-111666666D01*
X193785714Y-111714285D01*
X194119047Y-111714285D01*
X194309523Y-111666666D01*
X194404761Y-111571428D01*
X194452380Y-111476190D01*
X194452380Y-111285714D01*
X194404761Y-111190476D01*
X194309523Y-111095238D01*
X194119047Y-111047619D01*
X193785714Y-111047619D01*
X193595238Y-111095238D01*
X193500000Y-111190476D01*
X193452380Y-111285714D01*
X194452380Y-112904761D02*
X193452380Y-112904761D01*
X193452380Y-113285714D01*
X193500000Y-113380952D01*
X193547619Y-113428571D01*
X193642857Y-113476190D01*
X193785714Y-113476190D01*
X193880952Y-113428571D01*
X193928571Y-113380952D01*
X193976190Y-113285714D01*
X193976190Y-112904761D01*
X194452380Y-113904761D02*
X193452380Y-113904761D01*
X193452380Y-114285714D02*
X194452380Y-114952380D01*
X193452380Y-114952380D02*
X194452380Y-114285714D01*
X196752380Y-108342857D02*
X195752380Y-108342857D01*
X196752380Y-108914285D02*
X196180952Y-108485714D01*
X195752380Y-108914285D02*
X196323809Y-108342857D01*
X196752380Y-109342857D02*
X195752380Y-109342857D01*
X196752380Y-109914285D01*
X195752380Y-109914285D01*
X195752380Y-110295238D02*
X196752380Y-110961904D01*
X195752380Y-110961904D02*
X196752380Y-110295238D01*
X196752380Y-112104761D02*
X195752380Y-112104761D01*
X195752380Y-112485714D01*
X195800000Y-112580952D01*
X195847619Y-112628571D01*
X195942857Y-112676190D01*
X196085714Y-112676190D01*
X196180952Y-112628571D01*
X196228571Y-112580952D01*
X196276190Y-112485714D01*
X196276190Y-112104761D01*
X196752380Y-113104761D02*
X196085714Y-113104761D01*
X196276190Y-113104761D02*
X196180952Y-113152380D01*
X196133333Y-113200000D01*
X196085714Y-113295238D01*
X196085714Y-113390476D01*
X196752380Y-113866666D02*
X196704761Y-113771428D01*
X196657142Y-113723809D01*
X196561904Y-113676190D01*
X196276190Y-113676190D01*
X196180952Y-113723809D01*
X196133333Y-113771428D01*
X196085714Y-113866666D01*
X196085714Y-114009523D01*
X196133333Y-114104761D01*
X196180952Y-114152380D01*
X196276190Y-114200000D01*
X196561904Y-114200000D01*
X196657142Y-114152380D01*
X196704761Y-114104761D01*
X196752380Y-114009523D01*
X196752380Y-113866666D01*
X196085714Y-115057142D02*
X196895238Y-115057142D01*
X196990476Y-115009523D01*
X197038095Y-114961904D01*
X197085714Y-114866666D01*
X197085714Y-114723809D01*
X197038095Y-114628571D01*
X196704761Y-115057142D02*
X196752380Y-114961904D01*
X196752380Y-114771428D01*
X196704761Y-114676190D01*
X196657142Y-114628571D01*
X196561904Y-114580952D01*
X196276190Y-114580952D01*
X196180952Y-114628571D01*
X196133333Y-114676190D01*
X196085714Y-114771428D01*
X196085714Y-114961904D01*
X196133333Y-115057142D01*
X199452380Y-112252380D02*
X198976190Y-111919047D01*
X199452380Y-111680952D02*
X198452380Y-111680952D01*
X198452380Y-112061904D01*
X198500000Y-112157142D01*
X198547619Y-112204761D01*
X198642857Y-112252380D01*
X198785714Y-112252380D01*
X198880952Y-112204761D01*
X198928571Y-112157142D01*
X198976190Y-112061904D01*
X198976190Y-111680952D01*
X199452380Y-113157142D02*
X199452380Y-112680952D01*
X198452380Y-112680952D01*
X198928571Y-113490476D02*
X198928571Y-113823809D01*
X199452380Y-113966666D02*
X199452380Y-113490476D01*
X198452380Y-113490476D01*
X198452380Y-113966666D01*
X199452380Y-114395238D02*
X198452380Y-114395238D01*
X198452380Y-114633333D01*
X198500000Y-114776190D01*
X198595238Y-114871428D01*
X198690476Y-114919047D01*
X198880952Y-114966666D01*
X199023809Y-114966666D01*
X199214285Y-114919047D01*
X199309523Y-114871428D01*
X199404761Y-114776190D01*
X199452380Y-114633333D01*
X199452380Y-114395238D01*
X169404761Y-96538095D02*
X169452380Y-96680952D01*
X169452380Y-96919047D01*
X169404761Y-97014285D01*
X169357142Y-97061904D01*
X169261904Y-97109523D01*
X169166666Y-97109523D01*
X169071428Y-97061904D01*
X169023809Y-97014285D01*
X168976190Y-96919047D01*
X168928571Y-96728571D01*
X168880952Y-96633333D01*
X168833333Y-96585714D01*
X168738095Y-96538095D01*
X168642857Y-96538095D01*
X168547619Y-96585714D01*
X168500000Y-96633333D01*
X168452380Y-96728571D01*
X168452380Y-96966666D01*
X168500000Y-97109523D01*
X168452380Y-97442857D02*
X169452380Y-97680952D01*
X168738095Y-97871428D01*
X169452380Y-98061904D01*
X168452380Y-98300000D01*
X169357142Y-99252380D02*
X169404761Y-99204761D01*
X169452380Y-99061904D01*
X169452380Y-98966666D01*
X169404761Y-98823809D01*
X169309523Y-98728571D01*
X169214285Y-98680952D01*
X169023809Y-98633333D01*
X168880952Y-98633333D01*
X168690476Y-98680952D01*
X168595238Y-98728571D01*
X168500000Y-98823809D01*
X168452380Y-98966666D01*
X168452380Y-99061904D01*
X168500000Y-99204761D01*
X168547619Y-99252380D01*
X169452380Y-100157142D02*
X169452380Y-99680952D01*
X168452380Y-99680952D01*
X169452380Y-100490476D02*
X168452380Y-100490476D01*
X169452380Y-101061904D02*
X168880952Y-100633333D01*
X168452380Y-101061904D02*
X169023809Y-100490476D01*
X172104761Y-96442857D02*
X172152380Y-96585714D01*
X172152380Y-96823809D01*
X172104761Y-96919047D01*
X172057142Y-96966666D01*
X171961904Y-97014285D01*
X171866666Y-97014285D01*
X171771428Y-96966666D01*
X171723809Y-96919047D01*
X171676190Y-96823809D01*
X171628571Y-96633333D01*
X171580952Y-96538095D01*
X171533333Y-96490476D01*
X171438095Y-96442857D01*
X171342857Y-96442857D01*
X171247619Y-96490476D01*
X171200000Y-96538095D01*
X171152380Y-96633333D01*
X171152380Y-96871428D01*
X171200000Y-97014285D01*
X171152380Y-97347619D02*
X172152380Y-97585714D01*
X171438095Y-97776190D01*
X172152380Y-97966666D01*
X171152380Y-98204761D01*
X172152380Y-98585714D02*
X171152380Y-98585714D01*
X171152380Y-98823809D01*
X171200000Y-98966666D01*
X171295238Y-99061904D01*
X171390476Y-99109523D01*
X171580952Y-99157142D01*
X171723809Y-99157142D01*
X171914285Y-99109523D01*
X172009523Y-99061904D01*
X172104761Y-98966666D01*
X172152380Y-98823809D01*
X172152380Y-98585714D01*
X176400000Y-96547619D02*
X176352380Y-96452380D01*
X176352380Y-96309523D01*
X176400000Y-96166666D01*
X176495238Y-96071428D01*
X176590476Y-96023809D01*
X176780952Y-95976190D01*
X176923809Y-95976190D01*
X177114285Y-96023809D01*
X177209523Y-96071428D01*
X177304761Y-96166666D01*
X177352380Y-96309523D01*
X177352380Y-96404761D01*
X177304761Y-96547619D01*
X177257142Y-96595238D01*
X176923809Y-96595238D01*
X176923809Y-96404761D01*
X177352380Y-97023809D02*
X176352380Y-97023809D01*
X176352380Y-97404761D01*
X176400000Y-97500000D01*
X176447619Y-97547619D01*
X176542857Y-97595238D01*
X176685714Y-97595238D01*
X176780952Y-97547619D01*
X176828571Y-97500000D01*
X176876190Y-97404761D01*
X176876190Y-97023809D01*
X177352380Y-98023809D02*
X176352380Y-98023809D01*
X176352380Y-98690476D02*
X176352380Y-98880952D01*
X176400000Y-98976190D01*
X176495238Y-99071428D01*
X176685714Y-99119047D01*
X177019047Y-99119047D01*
X177209523Y-99071428D01*
X177304761Y-98976190D01*
X177352380Y-98880952D01*
X177352380Y-98690476D01*
X177304761Y-98595238D01*
X177209523Y-98500000D01*
X177019047Y-98452380D01*
X176685714Y-98452380D01*
X176495238Y-98500000D01*
X176400000Y-98595238D01*
X176352380Y-98690476D01*
X176447619Y-99500000D02*
X176400000Y-99547619D01*
X176352380Y-99642857D01*
X176352380Y-99880952D01*
X176400000Y-99976190D01*
X176447619Y-100023809D01*
X176542857Y-100071428D01*
X176638095Y-100071428D01*
X176780952Y-100023809D01*
X177352380Y-99452380D01*
X177352380Y-100071428D01*
X177352380Y-100547619D02*
X177352380Y-100738095D01*
X177304761Y-100833333D01*
X177257142Y-100880952D01*
X177114285Y-100976190D01*
X176923809Y-101023809D01*
X176542857Y-101023809D01*
X176447619Y-100976190D01*
X176400000Y-100928571D01*
X176352380Y-100833333D01*
X176352380Y-100642857D01*
X176400000Y-100547619D01*
X176447619Y-100500000D01*
X176542857Y-100452380D01*
X176780952Y-100452380D01*
X176876190Y-100500000D01*
X176923809Y-100547619D01*
X176971428Y-100642857D01*
X176971428Y-100833333D01*
X176923809Y-100928571D01*
X176876190Y-100976190D01*
X176780952Y-101023809D01*
X179000000Y-96547619D02*
X178952380Y-96452380D01*
X178952380Y-96309523D01*
X179000000Y-96166666D01*
X179095238Y-96071428D01*
X179190476Y-96023809D01*
X179380952Y-95976190D01*
X179523809Y-95976190D01*
X179714285Y-96023809D01*
X179809523Y-96071428D01*
X179904761Y-96166666D01*
X179952380Y-96309523D01*
X179952380Y-96404761D01*
X179904761Y-96547619D01*
X179857142Y-96595238D01*
X179523809Y-96595238D01*
X179523809Y-96404761D01*
X179952380Y-97023809D02*
X178952380Y-97023809D01*
X178952380Y-97404761D01*
X179000000Y-97500000D01*
X179047619Y-97547619D01*
X179142857Y-97595238D01*
X179285714Y-97595238D01*
X179380952Y-97547619D01*
X179428571Y-97500000D01*
X179476190Y-97404761D01*
X179476190Y-97023809D01*
X179952380Y-98023809D02*
X178952380Y-98023809D01*
X178952380Y-98690476D02*
X178952380Y-98880952D01*
X179000000Y-98976190D01*
X179095238Y-99071428D01*
X179285714Y-99119047D01*
X179619047Y-99119047D01*
X179809523Y-99071428D01*
X179904761Y-98976190D01*
X179952380Y-98880952D01*
X179952380Y-98690476D01*
X179904761Y-98595238D01*
X179809523Y-98500000D01*
X179619047Y-98452380D01*
X179285714Y-98452380D01*
X179095238Y-98500000D01*
X179000000Y-98595238D01*
X178952380Y-98690476D01*
X179047619Y-99500000D02*
X179000000Y-99547619D01*
X178952380Y-99642857D01*
X178952380Y-99880952D01*
X179000000Y-99976190D01*
X179047619Y-100023809D01*
X179142857Y-100071428D01*
X179238095Y-100071428D01*
X179380952Y-100023809D01*
X179952380Y-99452380D01*
X179952380Y-100071428D01*
X179380952Y-100642857D02*
X179333333Y-100547619D01*
X179285714Y-100500000D01*
X179190476Y-100452380D01*
X179142857Y-100452380D01*
X179047619Y-100500000D01*
X179000000Y-100547619D01*
X178952380Y-100642857D01*
X178952380Y-100833333D01*
X179000000Y-100928571D01*
X179047619Y-100976190D01*
X179142857Y-101023809D01*
X179190476Y-101023809D01*
X179285714Y-100976190D01*
X179333333Y-100928571D01*
X179380952Y-100833333D01*
X179380952Y-100642857D01*
X179428571Y-100547619D01*
X179476190Y-100500000D01*
X179571428Y-100452380D01*
X179761904Y-100452380D01*
X179857142Y-100500000D01*
X179904761Y-100547619D01*
X179952380Y-100642857D01*
X179952380Y-100833333D01*
X179904761Y-100928571D01*
X179857142Y-100976190D01*
X179761904Y-101023809D01*
X179571428Y-101023809D01*
X179476190Y-100976190D01*
X179428571Y-100928571D01*
X179380952Y-100833333D01*
X181350000Y-96463075D02*
X181302380Y-96367836D01*
X181302380Y-96224979D01*
X181350000Y-96082122D01*
X181445238Y-95986884D01*
X181540476Y-95939265D01*
X181730952Y-95891646D01*
X181873809Y-95891646D01*
X182064285Y-95939265D01*
X182159523Y-95986884D01*
X182254761Y-96082122D01*
X182302380Y-96224979D01*
X182302380Y-96320217D01*
X182254761Y-96463075D01*
X182207142Y-96510694D01*
X181873809Y-96510694D01*
X181873809Y-96320217D01*
X182302380Y-96939265D02*
X181302380Y-96939265D01*
X181302380Y-97320217D01*
X181350000Y-97415456D01*
X181397619Y-97463075D01*
X181492857Y-97510694D01*
X181635714Y-97510694D01*
X181730952Y-97463075D01*
X181778571Y-97415456D01*
X181826190Y-97320217D01*
X181826190Y-96939265D01*
X182302380Y-97939265D02*
X181302380Y-97939265D01*
X181302380Y-98605932D02*
X181302380Y-98796408D01*
X181350000Y-98891646D01*
X181445238Y-98986884D01*
X181635714Y-99034503D01*
X181969047Y-99034503D01*
X182159523Y-98986884D01*
X182254761Y-98891646D01*
X182302380Y-98796408D01*
X182302380Y-98605932D01*
X182254761Y-98510694D01*
X182159523Y-98415456D01*
X181969047Y-98367836D01*
X181635714Y-98367836D01*
X181445238Y-98415456D01*
X181350000Y-98510694D01*
X181302380Y-98605932D01*
X181397619Y-99415456D02*
X181350000Y-99463075D01*
X181302380Y-99558313D01*
X181302380Y-99796408D01*
X181350000Y-99891646D01*
X181397619Y-99939265D01*
X181492857Y-99986884D01*
X181588095Y-99986884D01*
X181730952Y-99939265D01*
X182302380Y-99367836D01*
X182302380Y-99986884D01*
X181302380Y-100320217D02*
X181302380Y-100986884D01*
X182302380Y-100558313D01*
X192221428Y-95353551D02*
X192221428Y-96115456D01*
X192602380Y-95734503D02*
X191840476Y-95734503D01*
X191602380Y-96496408D02*
X191602380Y-97115456D01*
X191983333Y-96782122D01*
X191983333Y-96924979D01*
X192030952Y-97020217D01*
X192078571Y-97067836D01*
X192173809Y-97115456D01*
X192411904Y-97115456D01*
X192507142Y-97067836D01*
X192554761Y-97020217D01*
X192602380Y-96924979D01*
X192602380Y-96639265D01*
X192554761Y-96544027D01*
X192507142Y-96496408D01*
X191602380Y-97401170D02*
X192602380Y-97734503D01*
X191602380Y-98067836D01*
X191602380Y-98305932D02*
X191602380Y-98924979D01*
X191983333Y-98591646D01*
X191983333Y-98734503D01*
X192030952Y-98829741D01*
X192078571Y-98877360D01*
X192173809Y-98924979D01*
X192411904Y-98924979D01*
X192507142Y-98877360D01*
X192554761Y-98829741D01*
X192602380Y-98734503D01*
X192602380Y-98448789D01*
X192554761Y-98353551D01*
X192507142Y-98305932D01*
X189150000Y-96463075D02*
X189102380Y-96367836D01*
X189102380Y-96224979D01*
X189150000Y-96082122D01*
X189245238Y-95986884D01*
X189340476Y-95939265D01*
X189530952Y-95891646D01*
X189673809Y-95891646D01*
X189864285Y-95939265D01*
X189959523Y-95986884D01*
X190054761Y-96082122D01*
X190102380Y-96224979D01*
X190102380Y-96320217D01*
X190054761Y-96463075D01*
X190007142Y-96510694D01*
X189673809Y-96510694D01*
X189673809Y-96320217D01*
X190102380Y-96939265D02*
X189102380Y-96939265D01*
X189102380Y-97320217D01*
X189150000Y-97415456D01*
X189197619Y-97463075D01*
X189292857Y-97510694D01*
X189435714Y-97510694D01*
X189530952Y-97463075D01*
X189578571Y-97415456D01*
X189626190Y-97320217D01*
X189626190Y-96939265D01*
X190102380Y-97939265D02*
X189102380Y-97939265D01*
X189102380Y-98605932D02*
X189102380Y-98796408D01*
X189150000Y-98891646D01*
X189245238Y-98986884D01*
X189435714Y-99034503D01*
X189769047Y-99034503D01*
X189959523Y-98986884D01*
X190054761Y-98891646D01*
X190102380Y-98796408D01*
X190102380Y-98605932D01*
X190054761Y-98510694D01*
X189959523Y-98415456D01*
X189769047Y-98367836D01*
X189435714Y-98367836D01*
X189245238Y-98415456D01*
X189150000Y-98510694D01*
X189102380Y-98605932D01*
X189197619Y-99415456D02*
X189150000Y-99463075D01*
X189102380Y-99558313D01*
X189102380Y-99796408D01*
X189150000Y-99891646D01*
X189197619Y-99939265D01*
X189292857Y-99986884D01*
X189388095Y-99986884D01*
X189530952Y-99939265D01*
X190102380Y-99367836D01*
X190102380Y-99986884D01*
X189435714Y-100844027D02*
X190102380Y-100844027D01*
X189054761Y-100605932D02*
X189769047Y-100367836D01*
X189769047Y-100986884D01*
X195002380Y-95953551D02*
X194002380Y-95953551D01*
X195002380Y-96524979D02*
X194430952Y-96096408D01*
X194002380Y-96524979D02*
X194573809Y-95953551D01*
X195002380Y-96953551D02*
X194002380Y-96953551D01*
X195002380Y-97524979D01*
X194002380Y-97524979D01*
X194002380Y-97905932D02*
X195002380Y-98572598D01*
X194002380Y-98572598D02*
X195002380Y-97905932D01*
X184050000Y-96463075D02*
X184002380Y-96367836D01*
X184002380Y-96224979D01*
X184050000Y-96082122D01*
X184145238Y-95986884D01*
X184240476Y-95939265D01*
X184430952Y-95891646D01*
X184573809Y-95891646D01*
X184764285Y-95939265D01*
X184859523Y-95986884D01*
X184954761Y-96082122D01*
X185002380Y-96224979D01*
X185002380Y-96320217D01*
X184954761Y-96463075D01*
X184907142Y-96510694D01*
X184573809Y-96510694D01*
X184573809Y-96320217D01*
X185002380Y-96939265D02*
X184002380Y-96939265D01*
X184002380Y-97320217D01*
X184050000Y-97415456D01*
X184097619Y-97463075D01*
X184192857Y-97510694D01*
X184335714Y-97510694D01*
X184430952Y-97463075D01*
X184478571Y-97415456D01*
X184526190Y-97320217D01*
X184526190Y-96939265D01*
X185002380Y-97939265D02*
X184002380Y-97939265D01*
X184002380Y-98605932D02*
X184002380Y-98796408D01*
X184050000Y-98891646D01*
X184145238Y-98986884D01*
X184335714Y-99034503D01*
X184669047Y-99034503D01*
X184859523Y-98986884D01*
X184954761Y-98891646D01*
X185002380Y-98796408D01*
X185002380Y-98605932D01*
X184954761Y-98510694D01*
X184859523Y-98415456D01*
X184669047Y-98367836D01*
X184335714Y-98367836D01*
X184145238Y-98415456D01*
X184050000Y-98510694D01*
X184002380Y-98605932D01*
X184097619Y-99415456D02*
X184050000Y-99463075D01*
X184002380Y-99558313D01*
X184002380Y-99796408D01*
X184050000Y-99891646D01*
X184097619Y-99939265D01*
X184192857Y-99986884D01*
X184288095Y-99986884D01*
X184430952Y-99939265D01*
X185002380Y-99367836D01*
X185002380Y-99986884D01*
X184002380Y-100844027D02*
X184002380Y-100653551D01*
X184050000Y-100558313D01*
X184097619Y-100510694D01*
X184240476Y-100415456D01*
X184430952Y-100367836D01*
X184811904Y-100367836D01*
X184907142Y-100415456D01*
X184954761Y-100463075D01*
X185002380Y-100558313D01*
X185002380Y-100748789D01*
X184954761Y-100844027D01*
X184907142Y-100891646D01*
X184811904Y-100939265D01*
X184573809Y-100939265D01*
X184478571Y-100891646D01*
X184430952Y-100844027D01*
X184383333Y-100748789D01*
X184383333Y-100558313D01*
X184430952Y-100463075D01*
X184478571Y-100415456D01*
X184573809Y-100367836D01*
X196550000Y-96453551D02*
X196502380Y-96358313D01*
X196502380Y-96215456D01*
X196550000Y-96072598D01*
X196645238Y-95977360D01*
X196740476Y-95929741D01*
X196930952Y-95882122D01*
X197073809Y-95882122D01*
X197264285Y-95929741D01*
X197359523Y-95977360D01*
X197454761Y-96072598D01*
X197502380Y-96215456D01*
X197502380Y-96310694D01*
X197454761Y-96453551D01*
X197407142Y-96501170D01*
X197073809Y-96501170D01*
X197073809Y-96310694D01*
X197502380Y-96929741D02*
X196502380Y-96929741D01*
X197502380Y-97501170D01*
X196502380Y-97501170D01*
X197502380Y-97977360D02*
X196502380Y-97977360D01*
X196502380Y-98215456D01*
X196550000Y-98358313D01*
X196645238Y-98453551D01*
X196740476Y-98501170D01*
X196930952Y-98548789D01*
X197073809Y-98548789D01*
X197264285Y-98501170D01*
X197359523Y-98453551D01*
X197454761Y-98358313D01*
X197502380Y-98215456D01*
X197502380Y-97977360D01*
X186550000Y-96463075D02*
X186502380Y-96367836D01*
X186502380Y-96224979D01*
X186550000Y-96082122D01*
X186645238Y-95986884D01*
X186740476Y-95939265D01*
X186930952Y-95891646D01*
X187073809Y-95891646D01*
X187264285Y-95939265D01*
X187359523Y-95986884D01*
X187454761Y-96082122D01*
X187502380Y-96224979D01*
X187502380Y-96320217D01*
X187454761Y-96463075D01*
X187407142Y-96510694D01*
X187073809Y-96510694D01*
X187073809Y-96320217D01*
X187502380Y-96939265D02*
X186502380Y-96939265D01*
X186502380Y-97320217D01*
X186550000Y-97415456D01*
X186597619Y-97463075D01*
X186692857Y-97510694D01*
X186835714Y-97510694D01*
X186930952Y-97463075D01*
X186978571Y-97415456D01*
X187026190Y-97320217D01*
X187026190Y-96939265D01*
X187502380Y-97939265D02*
X186502380Y-97939265D01*
X186502380Y-98605932D02*
X186502380Y-98796408D01*
X186550000Y-98891646D01*
X186645238Y-98986884D01*
X186835714Y-99034503D01*
X187169047Y-99034503D01*
X187359523Y-98986884D01*
X187454761Y-98891646D01*
X187502380Y-98796408D01*
X187502380Y-98605932D01*
X187454761Y-98510694D01*
X187359523Y-98415456D01*
X187169047Y-98367836D01*
X186835714Y-98367836D01*
X186645238Y-98415456D01*
X186550000Y-98510694D01*
X186502380Y-98605932D01*
X186597619Y-99415456D02*
X186550000Y-99463075D01*
X186502380Y-99558313D01*
X186502380Y-99796408D01*
X186550000Y-99891646D01*
X186597619Y-99939265D01*
X186692857Y-99986884D01*
X186788095Y-99986884D01*
X186930952Y-99939265D01*
X187502380Y-99367836D01*
X187502380Y-99986884D01*
X186502380Y-100891646D02*
X186502380Y-100415456D01*
X186978571Y-100367836D01*
X186930952Y-100415456D01*
X186883333Y-100510694D01*
X186883333Y-100748789D01*
X186930952Y-100844027D01*
X186978571Y-100891646D01*
X187073809Y-100939265D01*
X187311904Y-100939265D01*
X187407142Y-100891646D01*
X187454761Y-100844027D01*
X187502380Y-100748789D01*
X187502380Y-100510694D01*
X187454761Y-100415456D01*
X187407142Y-100367836D01*
%TO.C,J6*%
X86307380Y-97872779D02*
X87021666Y-97872779D01*
X87164523Y-97825160D01*
X87259761Y-97729922D01*
X87307380Y-97587065D01*
X87307380Y-97491827D01*
X86307380Y-98777541D02*
X86307380Y-98587065D01*
X86355000Y-98491827D01*
X86402619Y-98444208D01*
X86545476Y-98348970D01*
X86735952Y-98301351D01*
X87116904Y-98301351D01*
X87212142Y-98348970D01*
X87259761Y-98396589D01*
X87307380Y-98491827D01*
X87307380Y-98682303D01*
X87259761Y-98777541D01*
X87212142Y-98825160D01*
X87116904Y-98872779D01*
X86878809Y-98872779D01*
X86783571Y-98825160D01*
X86735952Y-98777541D01*
X86688333Y-98682303D01*
X86688333Y-98491827D01*
X86735952Y-98396589D01*
X86783571Y-98348970D01*
X86878809Y-98301351D01*
%TO.C,JP2*%
X205702380Y-115182122D02*
X206416666Y-115182122D01*
X206559523Y-115134503D01*
X206654761Y-115039265D01*
X206702380Y-114896408D01*
X206702380Y-114801170D01*
X206702380Y-115658313D02*
X205702380Y-115658313D01*
X205702380Y-116039265D01*
X205750000Y-116134503D01*
X205797619Y-116182122D01*
X205892857Y-116229741D01*
X206035714Y-116229741D01*
X206130952Y-116182122D01*
X206178571Y-116134503D01*
X206226190Y-116039265D01*
X206226190Y-115658313D01*
X205797619Y-116610694D02*
X205750000Y-116658313D01*
X205702380Y-116753551D01*
X205702380Y-116991646D01*
X205750000Y-117086884D01*
X205797619Y-117134503D01*
X205892857Y-117182122D01*
X205988095Y-117182122D01*
X206130952Y-117134503D01*
X206702380Y-116563075D01*
X206702380Y-117182122D01*
X208102380Y-115201170D02*
X208102380Y-114629741D01*
X208102380Y-114915456D02*
X207102380Y-114915456D01*
X207245238Y-114820217D01*
X207340476Y-114724979D01*
X207388095Y-114629741D01*
X207102380Y-117082122D02*
X207102380Y-117701170D01*
X207483333Y-117367836D01*
X207483333Y-117510694D01*
X207530952Y-117605932D01*
X207578571Y-117653551D01*
X207673809Y-117701170D01*
X207911904Y-117701170D01*
X208007142Y-117653551D01*
X208054761Y-117605932D01*
X208102380Y-117510694D01*
X208102380Y-117224979D01*
X208054761Y-117129741D01*
X208007142Y-117082122D01*
%TO.C,JP1*%
X213883580Y-115442124D02*
X214597866Y-115442124D01*
X214740723Y-115394505D01*
X214835961Y-115299267D01*
X214883580Y-115156410D01*
X214883580Y-115061172D01*
X214883580Y-115918315D02*
X213883580Y-115918315D01*
X213883580Y-116299267D01*
X213931200Y-116394505D01*
X213978819Y-116442124D01*
X214074057Y-116489743D01*
X214216914Y-116489743D01*
X214312152Y-116442124D01*
X214359771Y-116394505D01*
X214407390Y-116299267D01*
X214407390Y-115918315D01*
X214883580Y-117442124D02*
X214883580Y-116870696D01*
X214883580Y-117156410D02*
X213883580Y-117156410D01*
X214026438Y-117061172D01*
X214121676Y-116965934D01*
X214169295Y-116870696D01*
D11*
%TO.C,J6*%
X89405000Y-97921113D02*
X89405000Y-103921113D01*
X92045000Y-94864042D02*
X92045000Y-95261113D01*
X101445000Y-97921113D02*
X101445000Y-103921113D01*
X88745000Y-97921113D02*
X88745000Y-103921113D01*
X95475000Y-95261113D02*
X95475000Y-97921113D01*
X88925000Y-97921113D02*
X88925000Y-103921113D01*
X88745000Y-94931113D02*
X88745000Y-95261113D01*
X104745000Y-94864042D02*
X104745000Y-95261113D01*
X87795000Y-97921113D02*
X87795000Y-95261113D01*
X105695000Y-97921113D02*
X87795000Y-97921113D01*
X99665000Y-94864042D02*
X99665000Y-95261113D01*
X101445000Y-94864042D02*
X101445000Y-95261113D01*
X89285000Y-97921113D02*
X89285000Y-103921113D01*
X105695000Y-95261113D02*
X105695000Y-97921113D01*
X102205000Y-103921113D02*
X102205000Y-97921113D01*
X94585000Y-103921113D02*
X94585000Y-97921113D01*
X91285000Y-94864042D02*
X91285000Y-95261113D01*
X89505000Y-103921113D02*
X89505000Y-97921113D01*
X87795000Y-95261113D02*
X105695000Y-95261113D01*
X92045000Y-103921113D02*
X92045000Y-97921113D01*
X90395000Y-95261113D02*
X90395000Y-97921113D01*
X89045000Y-97921113D02*
X89045000Y-103921113D01*
X97125000Y-94864042D02*
X97125000Y-95261113D01*
X93825000Y-97921113D02*
X93825000Y-103921113D01*
X96365000Y-97921113D02*
X96365000Y-103921113D01*
X103985000Y-97921113D02*
X103985000Y-103921113D01*
X96365000Y-94864042D02*
X96365000Y-95261113D01*
X102205000Y-94864042D02*
X102205000Y-95261113D01*
X88745000Y-103921113D02*
X89505000Y-103921113D01*
X97125000Y-103921113D02*
X97125000Y-97921113D01*
X98905000Y-103921113D02*
X99665000Y-103921113D01*
X103985000Y-103921113D02*
X104745000Y-103921113D01*
X101445000Y-103921113D02*
X102205000Y-103921113D01*
X93825000Y-103921113D02*
X94585000Y-103921113D01*
X89125000Y-92551113D02*
X87855000Y-92551113D01*
X94585000Y-94864042D02*
X94585000Y-95261113D01*
X103095000Y-95261113D02*
X103095000Y-97921113D01*
X103985000Y-94864042D02*
X103985000Y-95261113D01*
X104745000Y-103921113D02*
X104745000Y-97921113D01*
X98905000Y-97921113D02*
X98905000Y-103921113D01*
X96365000Y-103921113D02*
X97125000Y-103921113D01*
X100555000Y-95261113D02*
X100555000Y-97921113D01*
X88805000Y-97921113D02*
X88805000Y-103921113D01*
X91285000Y-103921113D02*
X92045000Y-103921113D01*
X99665000Y-103921113D02*
X99665000Y-97921113D01*
X87855000Y-92551113D02*
X87855000Y-93821113D01*
X89505000Y-94931113D02*
X89505000Y-95261113D01*
X98015000Y-95261113D02*
X98015000Y-97921113D01*
X93825000Y-94864042D02*
X93825000Y-95261113D01*
X98905000Y-94864042D02*
X98905000Y-95261113D01*
X92935000Y-95261113D02*
X92935000Y-97921113D01*
X91285000Y-97921113D02*
X91285000Y-103921113D01*
X89165000Y-97921113D02*
X89165000Y-103921113D01*
%TO.C,JP2*%
X209150000Y-113965456D02*
G75*
G03*
X208450000Y-114665456I-1J-699999D01*
G01*
X209750000Y-118065456D02*
G75*
G03*
X210450000Y-117365456I0J700000D01*
G01*
X210450000Y-114665456D02*
G75*
G03*
X209750000Y-113965456I-699999J1D01*
G01*
X208450000Y-117365456D02*
G75*
G03*
X209150000Y-118065456I700000J0D01*
G01*
X210450000Y-117415456D02*
X210450000Y-114615456D01*
X208450000Y-114615456D02*
X208450000Y-117415456D01*
X209750000Y-113965456D02*
X209150000Y-113965456D01*
X209150000Y-118065456D02*
X209750000Y-118065456D01*
%TO.C,JP1*%
X211631200Y-116975458D02*
G75*
G03*
X212331200Y-117675458I699999J-1D01*
G01*
X212331200Y-114875458D02*
G75*
G03*
X211631200Y-115575458I0J-700000D01*
G01*
X213631200Y-115575458D02*
G75*
G03*
X212931200Y-114875458I-700000J0D01*
G01*
X212931200Y-117675458D02*
G75*
G03*
X213631200Y-116975458I1J699999D01*
G01*
X211631200Y-115575458D02*
X211631200Y-116975458D01*
X212931200Y-114875458D02*
X212331200Y-114875458D01*
X212331200Y-117675458D02*
X212931200Y-117675458D01*
X213631200Y-116975458D02*
X213631200Y-115575458D01*
%TD*%
%LPC*%
D12*
%TO.C,J8*%
X171590000Y-95015456D03*
D13*
X169050000Y-95015456D03*
%TD*%
D12*
%TO.C,J5*%
X127415000Y-116693000D03*
X124875000Y-116693000D03*
X122335000Y-116693000D03*
X119795000Y-116693000D03*
X117255000Y-116693000D03*
X114715000Y-116693000D03*
D13*
X112175000Y-116693000D03*
%TD*%
D12*
%TO.C,J7*%
X183810000Y-116554458D03*
X186350000Y-116554458D03*
X188890000Y-116554458D03*
X191430000Y-116554458D03*
X193970000Y-116554458D03*
X196510000Y-116554458D03*
D13*
X199050000Y-116554458D03*
%TD*%
D14*
%TO.C,J2*%
X82200000Y-107843000D03*
X82200000Y-113593000D03*
%TD*%
D15*
%TO.C,J3*%
X157400000Y-108858000D03*
D16*
X157400000Y-113858000D03*
%TD*%
D12*
%TO.C,J1*%
X197160000Y-94400000D03*
X194620000Y-94400000D03*
X192080000Y-94400000D03*
X189540000Y-94400000D03*
X187000000Y-94400000D03*
X184460000Y-94400000D03*
X181920000Y-94400000D03*
X179380000Y-94400000D03*
D13*
X176840000Y-94400000D03*
%TD*%
D17*
%TO.C,J4*%
X165350000Y-113352956D03*
D18*
X171350000Y-116052956D03*
D17*
X170350000Y-113352956D03*
D18*
X164350000Y-116052956D03*
%TD*%
D12*
%TO.C,J6*%
X104365000Y-93821113D03*
X101825000Y-93821113D03*
X99285000Y-93821113D03*
X96745000Y-93821113D03*
X94205000Y-93821113D03*
X91665000Y-93821113D03*
D13*
X89125000Y-93821113D03*
%TD*%
D19*
%TO.C,JP2*%
X209450000Y-117315456D03*
D20*
X209450000Y-116015456D03*
D21*
X209450000Y-114715456D03*
%TD*%
D22*
%TO.C,JP1*%
X212631200Y-115625458D03*
D23*
X212631200Y-116925458D03*
%TD*%
M02*
