%TF.GenerationSoftware,KiCad,Pcbnew,(6.0.8-1)-1*%
%TF.CreationDate,2022-11-21T09:11:56+01:00*%
%TF.ProjectId,KNXCurrent,4b4e5843-7572-4726-956e-742e6b696361,rev?*%
%TF.SameCoordinates,Original*%
%TF.FileFunction,Paste,Top*%
%TF.FilePolarity,Positive*%
%FSLAX46Y46*%
G04 Gerber Fmt 4.6, Leading zero omitted, Abs format (unit mm)*
G04 Created by KiCad (PCBNEW (6.0.8-1)-1) date 2022-11-21 09:11:56*
%MOMM*%
%LPD*%
G01*
G04 APERTURE LIST*
G04 Aperture macros list*
%AMRoundRect*
0 Rectangle with rounded corners*
0 $1 Rounding radius*
0 $2 $3 $4 $5 $6 $7 $8 $9 X,Y pos of 4 corners*
0 Add a 4 corners polygon primitive as box body*
4,1,4,$2,$3,$4,$5,$6,$7,$8,$9,$2,$3,0*
0 Add four circle primitives for the rounded corners*
1,1,$1+$1,$2,$3*
1,1,$1+$1,$4,$5*
1,1,$1+$1,$6,$7*
1,1,$1+$1,$8,$9*
0 Add four rect primitives between the rounded corners*
20,1,$1+$1,$2,$3,$4,$5,0*
20,1,$1+$1,$4,$5,$6,$7,0*
20,1,$1+$1,$6,$7,$8,$9,0*
20,1,$1+$1,$8,$9,$2,$3,0*%
G04 Aperture macros list end*
%ADD10RoundRect,0.225000X-0.250000X0.225000X-0.250000X-0.225000X0.250000X-0.225000X0.250000X0.225000X0*%
%ADD11RoundRect,0.140000X0.140000X0.170000X-0.140000X0.170000X-0.140000X-0.170000X0.140000X-0.170000X0*%
%ADD12RoundRect,0.250000X-0.250000X-0.475000X0.250000X-0.475000X0.250000X0.475000X-0.250000X0.475000X0*%
%ADD13RoundRect,0.250000X1.500000X0.550000X-1.500000X0.550000X-1.500000X-0.550000X1.500000X-0.550000X0*%
%ADD14R,0.900000X1.500000*%
%ADD15RoundRect,0.135000X0.135000X0.185000X-0.135000X0.185000X-0.135000X-0.185000X0.135000X-0.185000X0*%
%ADD16RoundRect,0.150000X0.150000X-0.512500X0.150000X0.512500X-0.150000X0.512500X-0.150000X-0.512500X0*%
%ADD17R,1.297940X1.498600*%
%ADD18R,1.400000X1.200000*%
%ADD19R,0.450000X0.600000*%
%ADD20RoundRect,0.150000X-0.587500X-0.150000X0.587500X-0.150000X0.587500X0.150000X-0.587500X0.150000X0*%
%ADD21R,4.000000X1.500000*%
%ADD22RoundRect,0.218750X0.256250X-0.218750X0.256250X0.218750X-0.256250X0.218750X-0.256250X-0.218750X0*%
%ADD23R,1.000000X1.000000*%
%ADD24RoundRect,0.250000X0.262500X0.450000X-0.262500X0.450000X-0.262500X-0.450000X0.262500X-0.450000X0*%
%ADD25RoundRect,0.250000X1.425000X-0.362500X1.425000X0.362500X-1.425000X0.362500X-1.425000X-0.362500X0*%
%ADD26RoundRect,0.140000X-0.170000X0.140000X-0.170000X-0.140000X0.170000X-0.140000X0.170000X0.140000X0*%
%ADD27RoundRect,0.135000X-0.135000X-0.185000X0.135000X-0.185000X0.135000X0.185000X-0.135000X0.185000X0*%
%ADD28RoundRect,0.140000X0.170000X-0.140000X0.170000X0.140000X-0.170000X0.140000X-0.170000X-0.140000X0*%
%ADD29RoundRect,0.225000X0.225000X0.250000X-0.225000X0.250000X-0.225000X-0.250000X0.225000X-0.250000X0*%
%ADD30RoundRect,0.140000X-0.140000X-0.170000X0.140000X-0.170000X0.140000X0.170000X-0.140000X0.170000X0*%
%ADD31RoundRect,0.050000X0.387500X-0.050000X0.387500X0.050000X-0.387500X0.050000X-0.387500X-0.050000X0*%
%ADD32RoundRect,0.050000X0.050000X-0.387500X0.050000X0.387500X-0.050000X0.387500X-0.050000X-0.387500X0*%
%ADD33RoundRect,0.249999X0.395001X-0.395001X0.395001X0.395001X-0.395001X0.395001X-0.395001X-0.395001X0*%
%ADD34R,3.100000X2.400000*%
%ADD35R,0.350000X0.850000*%
%ADD36RoundRect,0.225000X-0.225000X-0.250000X0.225000X-0.250000X0.225000X0.250000X-0.225000X0.250000X0*%
%ADD37RoundRect,0.062500X0.062500X0.350000X-0.062500X0.350000X-0.062500X-0.350000X0.062500X-0.350000X0*%
%ADD38RoundRect,0.062500X0.350000X0.062500X-0.350000X0.062500X-0.350000X-0.062500X0.350000X-0.062500X0*%
%ADD39RoundRect,0.232500X0.232500X0.232500X-0.232500X0.232500X-0.232500X-0.232500X0.232500X-0.232500X0*%
%ADD40RoundRect,0.225000X0.250000X-0.225000X0.250000X0.225000X-0.250000X0.225000X-0.250000X-0.225000X0*%
%ADD41R,0.600000X0.450000*%
%ADD42RoundRect,0.135000X0.185000X-0.135000X0.185000X0.135000X-0.185000X0.135000X-0.185000X-0.135000X0*%
%ADD43RoundRect,0.250000X-0.262500X-0.450000X0.262500X-0.450000X0.262500X0.450000X-0.262500X0.450000X0*%
%ADD44R,1.800000X2.500000*%
%ADD45R,2.500000X1.800000*%
%ADD46R,1.150000X1.000000*%
%ADD47R,1.500000X1.900000*%
%ADD48R,0.400000X1.350000*%
G04 APERTURE END LIST*
D10*
%TO.C,C3*%
X215650000Y-112290456D03*
X215650000Y-110740456D03*
%TD*%
D11*
%TO.C,C11*%
X197899200Y-107131458D03*
X198859200Y-107131458D03*
%TD*%
D12*
%TO.C,C101*%
X201598200Y-100886458D03*
X199698200Y-100886458D03*
%TD*%
D11*
%TO.C,C26*%
X179385200Y-104845458D03*
X180345200Y-104845458D03*
%TD*%
D13*
%TO.C,C4*%
X206375200Y-100019458D03*
X211775200Y-100019458D03*
%TD*%
D14*
%TO.C,LED1*%
X80050000Y-99750000D03*
X76750000Y-99750000D03*
X76750000Y-94850000D03*
X80050000Y-94850000D03*
%TD*%
D15*
%TO.C,R5*%
X195640000Y-104915456D03*
X196660000Y-104915456D03*
%TD*%
D16*
%TO.C,U4*%
X166194000Y-105121956D03*
X168094000Y-105121956D03*
X168094000Y-107396956D03*
X167144000Y-107396956D03*
X166194000Y-107396956D03*
%TD*%
D17*
%TO.C,U2*%
X142638400Y-113502400D03*
X142638400Y-110962400D03*
X151636740Y-110962400D03*
X151636740Y-113502400D03*
%TD*%
D18*
%TO.C,X1*%
X207561200Y-116539458D03*
X205361200Y-116539458D03*
X205361200Y-114839458D03*
X207561200Y-114839458D03*
%TD*%
D19*
%TO.C,D3*%
X164350000Y-110865456D03*
X164350000Y-108765456D03*
%TD*%
D20*
%TO.C,Q1*%
X140201900Y-110403600D03*
X138326900Y-111353600D03*
X138326900Y-109453600D03*
%TD*%
D21*
%TO.C,L1*%
X202217200Y-94155458D03*
X202217200Y-97755458D03*
%TD*%
D22*
%TO.C,D4*%
X114888200Y-96745615D03*
X114888200Y-98320615D03*
%TD*%
D23*
%TO.C,SW3*%
X177350000Y-106163458D03*
X177350000Y-112163458D03*
X173350000Y-106163458D03*
X173350000Y-112163458D03*
%TD*%
D24*
%TO.C,R6*%
X146786600Y-107965200D03*
X148611600Y-107965200D03*
%TD*%
D15*
%TO.C,R4*%
X196373200Y-99003458D03*
X197393200Y-99003458D03*
%TD*%
D25*
%TO.C,R1*%
X216441200Y-102352956D03*
X216441200Y-108277956D03*
%TD*%
D26*
%TO.C,C12*%
X187231200Y-111421458D03*
X187231200Y-110461458D03*
%TD*%
D11*
%TO.C,C6*%
X211008400Y-113799856D03*
X211968400Y-113799856D03*
%TD*%
D24*
%TO.C,R7*%
X138605900Y-107609600D03*
X140430900Y-107609600D03*
%TD*%
D11*
%TO.C,C24*%
X183195200Y-99765458D03*
X184155200Y-99765458D03*
%TD*%
D27*
%TO.C,R12*%
X183165200Y-103829458D03*
X184185200Y-103829458D03*
%TD*%
D23*
%TO.C,SW1*%
X86211200Y-94407313D03*
X86211200Y-100407313D03*
X82211200Y-94407313D03*
X82211200Y-100407313D03*
%TD*%
D27*
%TO.C,R13*%
X183165200Y-102813458D03*
X184185200Y-102813458D03*
%TD*%
D11*
%TO.C,C23*%
X183195200Y-100781458D03*
X184155200Y-100781458D03*
%TD*%
D28*
%TO.C,C5*%
X203487200Y-111477458D03*
X203487200Y-112437458D03*
%TD*%
D29*
%TO.C,C21*%
X164591000Y-103211456D03*
X166141000Y-103211456D03*
%TD*%
D30*
%TO.C,C25*%
X198430000Y-101515456D03*
X197470000Y-101515456D03*
%TD*%
D10*
%TO.C,C1*%
X214150000Y-111590456D03*
X214150000Y-110040456D03*
%TD*%
D31*
%TO.C,U5*%
X186333700Y-107191458D03*
X186333700Y-106791458D03*
X186333700Y-106391458D03*
X186333700Y-105991458D03*
X186333700Y-105591458D03*
X186333700Y-105191458D03*
X186333700Y-104791458D03*
X186333700Y-104391458D03*
X186333700Y-103991458D03*
X186333700Y-103591458D03*
X186333700Y-103191458D03*
X186333700Y-102791458D03*
X186333700Y-102391458D03*
X186333700Y-101991458D03*
D32*
X187171200Y-101153958D03*
X187571200Y-101153958D03*
X187971200Y-101153958D03*
X188371200Y-101153958D03*
X188771200Y-101153958D03*
X189171200Y-101153958D03*
X189571200Y-101153958D03*
X189971200Y-101153958D03*
X190371200Y-101153958D03*
X190771200Y-101153958D03*
X191171200Y-101153958D03*
X191571200Y-101153958D03*
X191971200Y-101153958D03*
X192371200Y-101153958D03*
D31*
X193208700Y-101991458D03*
X193208700Y-102391458D03*
X193208700Y-102791458D03*
X193208700Y-103191458D03*
X193208700Y-103591458D03*
X193208700Y-103991458D03*
X193208700Y-104391458D03*
X193208700Y-104791458D03*
X193208700Y-105191458D03*
X193208700Y-105591458D03*
X193208700Y-105991458D03*
X193208700Y-106391458D03*
X193208700Y-106791458D03*
X193208700Y-107191458D03*
D32*
X192371200Y-108028958D03*
X191971200Y-108028958D03*
X191571200Y-108028958D03*
X191171200Y-108028958D03*
X190771200Y-108028958D03*
X190371200Y-108028958D03*
X189971200Y-108028958D03*
X189571200Y-108028958D03*
X189171200Y-108028958D03*
X188771200Y-108028958D03*
X188371200Y-108028958D03*
X187971200Y-108028958D03*
X187571200Y-108028958D03*
X187171200Y-108028958D03*
D33*
X188971200Y-105391458D03*
X190571200Y-103791458D03*
X188971200Y-103791458D03*
X190571200Y-105391458D03*
%TD*%
D15*
%TO.C,R8*%
X185440000Y-113415456D03*
X186460000Y-113415456D03*
%TD*%
D34*
%TO.C,IC1*%
X181950000Y-109615456D03*
D35*
X180750000Y-107665456D03*
X181550000Y-107665456D03*
X182350000Y-107665456D03*
X183150000Y-107665456D03*
X183150000Y-111565456D03*
X182350000Y-111565456D03*
X181550000Y-111565456D03*
X180750000Y-111565456D03*
%TD*%
D36*
%TO.C,C41*%
X209342200Y-104591458D03*
X207792200Y-104591458D03*
%TD*%
%TO.C,C10*%
X206026200Y-104369458D03*
X204476200Y-104369458D03*
%TD*%
D15*
%TO.C,R9*%
X114569200Y-93723115D03*
X115589200Y-93723115D03*
%TD*%
D26*
%TO.C,C9*%
X209686200Y-116424458D03*
X209686200Y-115464458D03*
%TD*%
D11*
%TO.C,C18*%
X183195200Y-101797458D03*
X184155200Y-101797458D03*
%TD*%
D37*
%TO.C,U1*%
X210376200Y-112421958D03*
X209876200Y-112421958D03*
X209376200Y-112421958D03*
X208876200Y-112421958D03*
X208376200Y-112421958D03*
X207876200Y-112421958D03*
X207376200Y-112421958D03*
X206876200Y-112421958D03*
X206376200Y-112421958D03*
X205876200Y-112421958D03*
D38*
X205188700Y-111734458D03*
X205188700Y-111234458D03*
X205188700Y-110734458D03*
X205188700Y-110234458D03*
X205188700Y-109734458D03*
X205188700Y-109234458D03*
X205188700Y-108734458D03*
X205188700Y-108234458D03*
X205188700Y-107734458D03*
X205188700Y-107234458D03*
D37*
X205876200Y-106546958D03*
X206376200Y-106546958D03*
X206876200Y-106546958D03*
X207376200Y-106546958D03*
X207876200Y-106546958D03*
X208376200Y-106546958D03*
X208876200Y-106546958D03*
X209376200Y-106546958D03*
X209876200Y-106546958D03*
X210376200Y-106546958D03*
D38*
X211063700Y-107234458D03*
X211063700Y-107734458D03*
X211063700Y-108234458D03*
X211063700Y-108734458D03*
X211063700Y-109234458D03*
X211063700Y-109734458D03*
X211063700Y-110234458D03*
X211063700Y-110734458D03*
X211063700Y-111234458D03*
X211063700Y-111734458D03*
D39*
X207551200Y-107759458D03*
X206401200Y-107759458D03*
X207551200Y-110059458D03*
X208701200Y-107759458D03*
X206401200Y-110059458D03*
X206401200Y-111209458D03*
X209851200Y-107759458D03*
X209851200Y-110059458D03*
X208701200Y-108909458D03*
X209851200Y-108909458D03*
X208701200Y-111209458D03*
X208701200Y-110059458D03*
X207551200Y-111209458D03*
X209851200Y-111209458D03*
X206401200Y-108909458D03*
X207551200Y-108909458D03*
%TD*%
D23*
%TO.C,SW2*%
X112316200Y-94533115D03*
X112316200Y-100533115D03*
X108316200Y-94533115D03*
X108316200Y-100533115D03*
%TD*%
D27*
%TO.C,R3*%
X166892000Y-109053456D03*
X165872000Y-109053456D03*
%TD*%
D40*
%TO.C,C2*%
X213250000Y-106840456D03*
X213250000Y-108390456D03*
%TD*%
D41*
%TO.C,D6*%
X178400000Y-115315456D03*
X176300000Y-115315456D03*
%TD*%
D30*
%TO.C,C20*%
X183139200Y-105861458D03*
X182179200Y-105861458D03*
%TD*%
D40*
%TO.C,C7*%
X164350000Y-104976456D03*
X164350000Y-106526456D03*
%TD*%
D27*
%TO.C,R2*%
X204691200Y-102809458D03*
X203671200Y-102809458D03*
%TD*%
D11*
%TO.C,C19*%
X195570000Y-100415456D03*
X196530000Y-100415456D03*
%TD*%
D28*
%TO.C,C22*%
X190787200Y-98523458D03*
X190787200Y-99483458D03*
%TD*%
D11*
%TO.C,C17*%
X197673200Y-102559458D03*
X198633200Y-102559458D03*
%TD*%
D42*
%TO.C,R11*%
X179850000Y-112805456D03*
X179850000Y-113825456D03*
%TD*%
D28*
%TO.C,C8*%
X203581200Y-115279458D03*
X203581200Y-116239458D03*
%TD*%
D26*
%TO.C,C13*%
X191803200Y-110687458D03*
X191803200Y-109727458D03*
%TD*%
D43*
%TO.C,R10*%
X140430900Y-113553200D03*
X138605900Y-113553200D03*
%TD*%
D44*
%TO.C,D1*%
X216350000Y-95315456D03*
X216350000Y-99315456D03*
%TD*%
D45*
%TO.C,D2*%
X210567200Y-94431458D03*
X206567200Y-94431458D03*
%TD*%
D46*
%TO.C,X2*%
X198040200Y-104399458D03*
X199790200Y-104399458D03*
X199790200Y-105799458D03*
X198040200Y-105799458D03*
%TD*%
D47*
%TO.C,J4*%
X166850000Y-116052956D03*
X168850000Y-116052956D03*
D48*
X169150000Y-113352956D03*
X168500000Y-113352956D03*
X167850000Y-113352956D03*
X167200000Y-113352956D03*
X166550000Y-113352956D03*
%TD*%
M02*
